<?xml version="1.0" encoding="utf-8"?>
<!-- Generator: Adobe Illustrator 28.2.0, SVG Export Plug-In . SVG Version: 6.00 Build 0)  -->
<svg version="1.1" id="Layer_1" xmlns="http://www.w3.org/2000/svg" xmlns:xlink="http://www.w3.org/1999/xlink" x="0px" y="0px"
	 viewBox="0 0 604 539" style="enable-background:new 0 0 604 539;" xml:space="preserve">
<style type="text/css">
	.st0{fill:#231F20;fill-opacity:0;}
	.st1{fill:#202022;}
	.st2{fill:#212123;}
	.st3{fill:#F6E4E5;}
	.st4{fill:#FBF5F5;}
	.st5{fill:#212122;}
	.st6{fill:#F5E3E4;}
	.st7{fill:#F4E4E5;}
	.st8{fill:#EABEBE;}
	.st9{fill:#CF8891;}
	.st10{fill:#F7EFEF;}
	.st11{fill:#F6F6F6;}
	.st12{fill:#F1F1F1;}
	.st13{fill:#EEEEEE;}
	.st14{fill:#F2F2F2;}
	.st15{fill:#232324;}
	.st16{fill:#EDC9C9;}
	.st17{fill:#EBE6E6;}
	.st18{fill:#EAE5E5;}
	.st19{fill:#FBF3F3;}
	.st20{fill:#909090;}
	.st21{fill:#F7E8E9;}
	.st22{fill:#272728;}
	.st23{fill:#FAF0F0;}
	.st24{fill:#CCC3C4;}
	.st25{fill:#CA858E;}
	.st26{fill:#F4EFF0;}
	.st27{fill:#E2D4D5;}
	.st28{fill:#EFD2D3;}
	.st29{fill:#ECDBDC;}
	.st30{fill:#ECC6C5;}
	.st31{fill:#F1ECEC;}
	.st32{fill:#BF7F87;}
	.st33{fill:#313132;}
	.st34{fill:#E6D5D6;}
	.st35{fill:#F1E6E6;}
	.st36{fill:#F5EFEF;}
	.st37{fill:#F9EEEE;}
	.st38{fill:#F2DDDE;}
	.st39{fill:#C9A5A5;}
	.st40{fill:#676768;}
	.st41{fill:#E2E2E2;}
	.st42{fill:#C4C4C5;}
	.st43{fill:#E3D3D3;}
	.st44{fill:#EFEDED;}
	.st45{fill:#F3DBDA;}
	.st46{fill:#AFAFB0;}
	.st47{fill:#F4E9E9;}
	.st48{fill:#5E5E5F;}
	.st49{fill:#6D4E53;}
	.st50{fill:#CACACA;}
	.st51{fill:#D39098;}
	.st52{fill:#F5EEEE;}
	.st53{fill:#434344;}
	.st54{fill:#505051;}
	.st55{fill:#333334;}
	.st56{fill:#C09D9C;}
	.st57{fill:#D9D4D4;}
	.st58{fill:#959596;}
	.st59{fill:#D0D0D0;}
	.st60{fill:#F5F5F5;}
	.st61{fill:#E1E0E1;}
	.st62{fill:#BBBBBB;}
	.st63{fill:#EFCDCD;}
	.st64{fill:#E6C9C8;}
	.st65{fill:#B8B8B9;}
	.st66{fill:#ACACAC;}
	.st67{fill:#787879;}
	.st68{fill:#EBEAEA;}
	.st69{fill:#F7F2F2;}
	.st70{fill:#F8F1F1;}
	.st71{fill:#F3F2F2;}
	.st72{fill:#F2ECEC;}
	.st73{fill:#EEECEC;}
	.st74{fill:#F3F3F3;}
	.st75{fill:#ECC2C2;}
	.st76{fill:#EFCFCE;}
	.st77{fill:#F6E5E6;}
	.st78{fill:#EFD1D0;}
	.st79{fill:#E5B4B6;}
	.st80{fill:#EDC8C7;}
	.st81{fill:#F1D6D7;}
	.st82{fill:#EFCFCF;}
	.st83{fill:#F4DDDD;}
	.st84{fill:#DCA2A7;}
</style>
<g>
	<g>
		<path class="st0" d="M34.3,242.5c2.9-7.3,10.4-11.8,18.2-11c18,1.9,49.7,4.2,57.5-1.5c11-8,55-26.6,65-49.3s31.9-36.7,54.9-71.7
			S275,60.2,276,40.1S301,2,312,0s58.3,0,63.1,1C380,2,359,28,372,33s35.9,18,70,42s55,64,69,77s54.1,88.9,58.1,96
			c3.9,7,11.9,55.9,11.9,72c0,12.6,11.6,26.3,16.7,31.7c1.6,1.7,2.8,3.6,3.6,5.8l2.5,6.5c0.8,2,1.2,4.2,1.2,6.3v12.3
			c0,8.7-6.3,16.2-14.8,17.5c-0.1,0-0.2,0-0.3,0c-9.8,1.4-67,22.4-66.9,32.5s12.5,82.8,5.7,87.1s-27.5,19-37.2,17.3
			s-91.2,1.7-104.9,1.7s-64.1,1.2-64.1,1.2l-129.2-1.8c-5.8-0.1-11.2-3-14.4-7.8c-4-6-10.3-13.6-17.9-15.9
			c-12.9-3.9-94.6-33.3-111.5-44.6C32.6,458.5,0.4,405.5,0,400.1c-0.3-4.6-0.1-49.5,0-61.6c0-2,0.4-3.9,1-5.8
			C5.6,319.9,24.5,267,34.3,242.5z"/>
		<path class="st1" d="M344,1c0,0.2,0,0.3,0,0.5c0.1,2.2,2.4,3.7,2.1,6.2c-0.3,2.1-0.1,4.3-0.1,6.5c0,4.5,1.4,9,1.1,13.6
			s-0.1,9.3-0.1,13.7c6.7,4.2,14.1,6.1,21.3,8.2c6.8,2,13.2,4.6,18.9,8.5c4.7,3.2,9.3,6.5,14,9.6c2.2,1.5,4.4,3,6.8,4.2
			c7.4,3.7,14.2,8.5,21.3,12.6c5.6,3.3,10.6,7.4,15.8,11.2c3.2,2.3,5.3,6,7.5,9.3c4.2,6.4,8.2,13,12.4,19.3c2.3,3.4,5.1,6.6,7.6,9.9
			c4.2,5.4,8.8,10.4,12.7,16.2c4.3,6.3,8.6,12.7,13.8,18.4c3.1,3.4,5.5,7.6,7.9,11.7c2.8,4.7,6,9.2,8.9,13.8
			c3.4,5.3,6.6,10.6,10,15.8c2.8,4.2,5.9,8.2,8.9,12.3c4.6,6.4,9.1,12.8,13.2,19.5c3,5,6.5,9.7,9.8,14.4c3.3,4.6,6.7,9.1,11,13
			c0.3,2.4-0.3,4.6-0.7,7c-0.4,1.9,1.7,4.3,0.5,6.4c-1.4,2.4,0.3,5.1-0.8,7.2c-1.2,2.3,0,4.9-1.3,7c-1.4,2.2,0.1,4.6-1.4,7
			c-1,1.7-0.7,4.3-1,6.5c-0.3,2.4-1.9,4.5-0.9,7.8c0.6,0.5,1.7,1.4,2.7,2.2c-0.2,1.5,0.1,2.5,0.8,3.4c-1.8,0.7-3.4,1.9-5.3,1.3
			c-0.7,0.7-1.3,1.3-2.1,2.1c-2.4-0.6-4.9,0.4-7.2,1.3c-2.2,0.8-4.4,1.1-6.6,2.2c-2,1-4.1,2.3-6.4,2.5c-1.2,0.1-1.8,0.9-2.3,1.7
			c-4.8,6.9-10.6,12.8-16.7,18.5c-2,1.9-3.2,4.5-5.2,6.4c-0.3,0.2,0,1,0,1.5c-3.1,2.3-4.5,6-7,8.8c-0.3,0.3-0.3,0.9-0.6,1.2
			c-4,3.9-6.9,8.9-11.3,12.3c-5.6,4.3-10.7,9.5-17.4,12.3c-3.7,1.6-7.6,2.8-11.6,3.4c-2.3,0.3-4.9,0.4-6.9,1.4
			c-2.3,1.3-5-0.8-6.9,1.5c-0.1,0.2-0.6,0.1-1,0c-6.6-0.7-13,1.3-19.6,1c-3.4-0.2-6.6,1.4-10.1,1.1c-3.3-0.3-6.8-0.7-9.9,0.1
			c-5.2,1.4-10.4,0.6-15.6,0.8c-2.6,0.1-4.9,1.5-7.6,1.1c-2.5-0.3-5.1-0.6-7.5,0c-4.9,1.3-9.7,0.8-14.6,0.9c-4.8,0.1-9.7,0-14.5,0
			c-5,0-10,0.1-15,0c-5.2-0.1-10.3,1.5-15.6,1.1c-5.3-0.4-10.7-0.1-16-0.1c-5.2,0-10.3,0-15.5,0c-5.3,0-10.7,0-16,0
			s-10.7,0.1-16-0.1c-2.4-0.1-4.8,0.8-7.2-0.6c-1.9-1.1-4.6,0.6-6.4-1.3c-5.2,0.3-9.6-2.5-14.3-4.1c-3.3-1.2-6.3-3.5-9.2-5.6
			c-7.7-5.7-14.2-12.9-20.7-19.9c-4.2-4.6-7.5-10.1-10.7-15.5c-2.1-3.5-4.1-7-6.4-10.3c-1.2-1.7-1.5-3.9-3.4-5.5
			c-1.6-0.5-3.9,0.6-5.5-1.3c-0.7,0.5-1.2,0.9-1.6,1.2c-4-1.6-8.9-0.6-12.4-4c0-0.5,0-1,0-1.4c-3.8-2.3-7.3-4.8-10.6-7.7
			c-1.5-1.4-2.6-3.2-4-4.7c-1.8-1.9-1.6-4.6-3.4-6.2c-0.5-1.9-2-0.6-3-1c-1.2-0.3-1.9-1-2-2.3c0-0.5-0.4-0.9-1-0.7
			c1.5-4.9,4.7-8.8,7.5-12.9c1-1.4,1.7-3,2.6-4.4c3.9-6.6,7.4-13.5,12.8-19.2c3.4-3.5,6-7.8,8.9-11.8c2.3-3.2,4.2-6.6,6.6-9.8
			c2-2.7,3.9-5.7,5.5-8.7c3.8-7.2,8.6-13.8,13-20.6c3.4-5.2,6.8-10.4,9.9-15.9c6.6-11.7,12.6-23.8,18.8-35.7
			c2.7-5.2,5.8-10.3,9-15.3c2.3-3.6,4.2-7.6,6.4-11.3c3.5-5.9,7.5-11.6,11.3-17.3c4-6.1,9.3-11.3,12.9-17.6c0.3-0.6,0.9-0.9,1.4-1.4
			c5.1-5.4,9.7-11.1,14.2-17.1c2-2.7,4.4-5.2,6.8-7.6c5.9-6,10.7-13,17.2-18.4c5-4.1,9.2-9,14.1-13c4.6-3.7,9.1-7.8,14.8-10.1
			c1.2-0.5,1.9-2.1,3.6-2.4c-3.4-1-6.9-2.1-10.4-1.5c-2,0.3-3.2-1.4-5.1-1.2c-1.7,0.2-3.7,0.9-5.1-0.9c-3,0.7-5.7-0.9-8.6-1.1
			c-3.6-0.2-7-1.4-10.3-2.7c-1.5-0.6-2.3-1.7-3.5-2.5c0-1,0-2,0-3.3c1.6-1.3,2.8-3.4,4.9-4.4c4.4-2.1,8.1-5.3,12.3-7.8
			c5.1-3,10.2-6,15.1-9.3c4.4-2.9,9.1-5.3,13.9-7.6c1.9-0.9,4-1.1,4.8-3.4C342.7,1,343.3,1,344,1z M334,53c-0.7,0-1,0.3-1,1
			c-0.3,0-0.7,0-1,0c-3.8,2.9-7.9,5.5-11.3,8.9c-13.1,12.9-26.6,25.5-37.6,40.4c-4.1,5.6-8.6,10.8-13.1,16.1
			c-3.7,4.4-7.2,9-10.6,13.6c-6.4,8.6-12.2,17.5-17.5,26.8c-1.5,2.7-2.7,5.6-4.4,8.1c-4.1,5.9-7.1,12.4-10.6,18.6
			c-4.3,7.4-7.4,15.3-11.9,22.6c-4.4,7.2-7.3,15.2-13.1,21.5c-2.2,5.6-6.8,9.7-9.3,15.1c-0.5,1.1-2.1,1.6-1.7,3.3c-0.7,0-1,0.3-1,1
			c-1.5,0.1-0.8,1.2-1,2c-0.7,0-1,0.3-1,1c-2,2.2-3.5,4.9-4.8,7.5c-0.7,1.5-3,2.3-2.2,4.5c-0.7,0-1,0.3-1,1
			c-0.3,0.1-0.7,0.2-0.8,0.4c-2.3,4.7-5.7,8.6-8.8,12.8c-2.8,3.7-5.6,7.3-8.3,11c-0.9,1.2-2.3,2-2.9,3.3c-2.2,5.2-6,9.4-8.1,14.6
			c-1.7,0.3-1,2.2-2,3c-0.5-0.1-0.8,0.1-0.9,0.6c0,0.1,0.2,0.3,0.3,0.3c0.5-0.1,0.7-0.4,0.6-0.9c0.8,0,1.6,0.2,2.2-0.7
			c0.5-0.7,1.2-0.2,1.8-0.3c3.6-1.3,7.2-2.8,10.8-4c9.7-3.1,18.9-7.3,28.1-11.6c8.7-4,17-8.7,26-11.9c5.5-1.9,11-4.1,17-3.5
			c0.3,0,0.7,0.1,1,0c2.9-1.8,6.2-0.3,9-1.1c3-0.9,6.1-1,9.1-0.9c10,0.4,20.1-1.1,30,0.9c3,0.6,6,0.4,9.1,0.9
			c6.6,1.1,12.5,3.5,18.5,6.1c3.7,1.7,6.9,4.1,10.5,5.9c2.9,1.4,5.8,2.8,8.7,4.2c2-0.2,3.3,1.5,5,2c0.1,1.5,1.2,0.8,2,1
			c-0.1,0.5,0.1,0.8,0.6,0.9c0.1,0,0.3-0.2,0.3-0.3c-0.1-0.5-0.4-0.7-0.9-0.6c0-0.7-0.3-1-1-1c0-0.3,0-0.7,0-1c0.5-1.3-0.9-1.9-1-3
			c-1.4-6.9-5-12.9-7.2-19.5c-1.7-5-3.8-9.9-4.7-15c-0.6-4.1-2-7.9-2.5-12.1c-0.3-2.9-1.2-5.8-1.8-8.7c-0.6-3.1-0.8-6.1-0.8-9.1
			c0-1.7,0.6-3.7-0.1-4.9c-1.4-2.2-0.5-4.5-0.9-6.7s-1.1-4.3-1-6.6c0.1-9.8,0.3-19.7,0-29.5c-0.3-9.7,1.8-19.3,1.1-29.1
			c0-0.7-0.3-1.5,0-2c1.7-2.4,0.5-5.1,1-7.6c0.5-2.7,1.1-5.3,1-8.1c-0.2-3.3,0-6.7,0-10c0-0.8-0.3-2,0.1-2.4c1.4-1.6,1-3.4,0.9-5.1
			c-0.2-2,1.5-3.5,1.1-5.6c-0.3-1.9,0.3-3.7,0.9-5.6s-0.8-4.3,1.1-6.1c0.9-6.9,2.4-13.6,3.8-20.4c1.5-7.2,3.4-14.2,5.9-21.1
			c0.4-1,0.1-1.9,0.3-2.9c1.5-0.1,0.8-1.2,1-2c1.4-0.2,1.2-1,0.6-1.9c-0.5,0.1-0.7,0.4-0.6,0.9C334.3,52,334,52.3,334,53z M212,375
			c0-0.7-0.3-1-1-1c-0.2-1.4-1-1.2-2.3-0.4c1.1,0.2,1.1,1.4,2.3,1.4C211.3,375,211.7,375,212,375c0,0.7,0.3,1,1,1c0,0.7,0.3,1,1,1
			c0,0.7,0.3,1,1,1c0.6,1.4,1.6,2.4,3,3c0.1,1.5,1.2,0.8,2,1c0,0.7,0.3,1,1,1c4,5.7,10.2,8.6,16,12c0.5,0,1,0,1.4,0
			c0.6,0.3,0.7,1.1,1.6,1c0.7,0,1.3,0,2,0c0.1,1.5,1.2,0.8,2,1c0.3,0,0.7,0,1,0s0.7,0,1,0c0.5,1.9,2,0.6,3,1c0.7,0,1.3,0,2,0
			c-0.1,0.9,0.5,1,1.2,1c0.9,0,1.9,0,2.8,0c0.3,0,0.7,0,1,0c1.7,0,3.3,0,5,0c0.2,1.7,1.5,1,2.3,1c5.8,0.1,11.6,0.1,17.4,0
			s11.8,0.8,17.5-1c15-0.4,29.9,0.6,44.9-0.9c7.6-0.7,15.3-0.1,22.9-0.1c5.2-0.4,10.3,0.1,15.6-0.8c5.7-1,11.7-0.1,17.6-1.1
			c4.4-0.8,9-0.2,13.6-0.9c6.1-0.9,12.4,0,18.6-1.1c3.6-0.7,7.5,0.7,11.1-1.1c6.3,0.3,12.5-0.9,18.7-1.9c3.7-0.6,7.3-1.8,10.9-2.6
			c3.7-0.8,6.7-3.1,9.8-5.4c5.3-3.8,10.2-8,14.2-13.1c1.1-0.2,1.8-0.9,2-2c1.1-0.2,1.8-0.9,2-2c0.7,0,1-0.3,1-1c0-0.3,0-0.7,0-1
			c0.7,0,1-0.3,1-1c0.7,0,1-0.3,1-1c0.5,0.1,0.8-0.1,0.9-0.6c0-0.1-0.2-0.3-0.3-0.3c-0.5,0.1-0.7,0.4-0.6,0.9c-0.7,0-1,0.3-1,1
			c-0.7,0-1,0.3-1,1c-0.7,0-1,0.3-1,1c-0.7,0-1,0.3-1,1c-0.8,0.2-1.9-0.5-2,1c-0.8,1-2.7,0.3-3,2c-0.5,0-1.1-0.2-1.5,0
			c-6.8,4.1-14.2,6.7-21.8,8.6c-4.4,1.1-8.8,2.5-13.4,2.4c-0.8,0-1.9-0.3-2.4,0.1c-2.4,1.6-5.1,1.1-7.6,0.8
			c-2.7-0.3-4.9,1.3-7.5,1.2c-4.3-0.2-8.6,0-12.9-0.1c-0.3,0-0.5-0.3-0.8-0.4c0-0.5-0.2-1,0.2-1.3c0.8-0.7,2.5,0.7,2.7-1.2
			c1.3,0,2.8,0.4,3.9-0.1c3.8-1.6,7.9-1.9,11.8-2.7c6.1-1.3,12.1-2.7,18.2-4c4-0.8,7.7-2.4,11.6-3.4c4-1,7.7-3.1,11.4-4.8
			c2.1-1,4.1-2.2,6-3.5c3.3-2.2,6.6-4.3,9-7.5c0.5,0.1,0.8-0.1,0.9-0.6c-0.9-0.5-1.6-0.7-1.9,0.6c-1.9-0.1-3.5,1.6-5.6,1.1
			c-1.4,1.8-3.4,0.4-5.1,1.1c-4.4,1.8-9.2,2.1-13.8,2.7c-3.5,0.5-6.9,1.9-10.6,1.2c-4.2,1.8-8.9,1.6-13.3,2.8
			c-4.5,1.3-9.4,1.1-14.1,2c-2.7,0.6-5.7,0.3-8.5,0s-5.3,1.4-8.1,1.1c-2.6-0.3-5.3-0.1-8-0.1c-0.7,0-1.5-0.3-1.9,0
			c-1.6,1.2-3.4,1.1-5.1,0.9c-1.9-0.3-3.3,1.1-5,1.1c-3.5,0-7.1-0.7-10.5,1c-6.2-0.6-12.3,0.8-18.4,1c-1.3,0-2.7,0.2-4,0
			c-1.6-0.3-2.5,1.5-4,1c-1,0-2,0-3,0c-2.2-0.5-3.9,1.3-6.1,1.1c-2-0.2-4.1,0.3-6.1,0.8c-3.4,0.7-7.1-0.3-10.5,1.2
			c-7.2-0.6-14.4,0.7-21.6,1.1c-4.5,0.3-8.6-1.5-13.1-1.1c-3.8,0.3-7.7,0.1-11.5,0.1c-0.8,0-2,0.4-2.4-0.1c-1.9-1.8-4.2-1-6.1-0.8
			c-2.4,0.2-4.3-1.5-6.6-1.1c-4.6,0.8-9-1.6-13.6-1c-0.8,0.1-1.2-0.7-1.7-0.8c-3.9-0.4-7.7-1.8-11.6-2.1c-3.1-0.2-5.9-1.9-9.1-1.1
			c-1.7-2.1-4.2-0.9-6.3-1.6c-3.5-1.1-7-2.5-10.6-3.3c-5.5-1.2-10.7-3.1-15.8-5.4c-2-0.9-4-1.9-6.3-1.8c0-0.7-0.3-1-1-1
			c-0.2-1.4-1-1.2-1.9-0.6c0.1,0.5,0.4,0.7,0.9,0.6c0,0.7,0.3,1,1,1c0.4,1.5,2,2.1,2.8,3.3c3.5,5.8,8.7,9.7,14.6,12.7
			c4.3,2.2,8.8,3.5,13.3,5.1c1.8,0.6,3.6,0.7,5.4,1.3c4.2,1.5,8.7,2.7,13.1,3.3c4.4,0.6,8.9,1.7,13.5,1.3c8.2-0.8,16.3,1.6,24.5,1
			c0.2,0,0.5,0.3,0.7,0.5c0,0.3,0,0.7,0,1.5c-1.8-0.8-2.8,1-4.4,0.9c-5.4,0-10.6,1.7-16,1.1c-2-0.2-4,0-6,0c-2.1,0-4.1,0.1-6.1,0.9
			c-1.8,0.7-3.5-1.3-5.5-1c-4.1,0.6-7.8-1-11.6-1.9c-4.4-1.1-8.8-1.9-13.2-3.1c-1.4-0.4-2.6-1.1-4.1-0.9c0-0.7-0.3-1-1-1
			c-0.3,0-0.7,0-1,0c-0.1-1.5-1.2-0.8-2-1c-1.1-0.1-1.7-1.5-3-1c0-0.7-0.3-1-1-1c-0.3,0-0.7,0-1,0C213,375.3,212.7,375,212,375z
			 M512,205c0-0.7-0.3-1-1-1c-0.2-0.8,0.5-1.9-1-2c-0.7-1.2-1.2-2.5-2.1-3.7c-2.7-3.7-5.6-7.3-7.9-11.2c-3.2-5.5-7-10.5-10.8-15.6
			c-1.7-2.3-3.8-4.3-5.4-6.7c-3.3-5.2-6.9-10.2-10.7-15c-4.4-5.5-9-10.9-13.4-16.4c-4.7-5.9-8.7-12.3-12.6-18.8
			c-2.2-3.7-4.4-7.3-7.4-10.4c-4.2-4.3-9-7.7-14-10.9c-5.7-3.6-11.1-7.6-17-10.9c-7.9-4.3-15.4-9-22.5-14.5c-2.9-2.2-6.2-4.2-9.5-6
			c-5.6-3-11.6-4.9-17.6-7c-3.7-1.3-7.6-2.3-10.9-4.8c-1.5,8.4,1.2,16.6,0.7,25c1.5,1.8,1.2,4.1,0.9,6.1c-0.3,2.2,1.1,4,1.1,6.1
			c-0.1,6.3,0.3,12.7-0.1,19s1.1,12.4,1.2,18.6c0.1,7.7-0.8,15.4,0.8,23.1c0.8,4,0.4,8.3,0.1,12.5c-0.3,4.3,1.2,8.3,1.2,12.6
			c0,5.2-0.3,10.3,0.7,15.6c1,5.2,0,10.7,1.1,16.1c0.8,4.2-0.3,8.7,1,13.1c0.7,2.5,0.4,5.3,0,7.9c-0.4,2.7,1.2,5,1.2,7.6
			c0,3.7,0,7.4,0.7,11.1c0.9,5,0.1,10.4,1.1,15.6c0.8,4.1-0.4,8.4,1,12.6c0.8,2.4,0.4,5.3,0.1,7.9c-0.4,2.9,1.3,5.3,1.1,8.1
			c-0.2,2.7-0.1,5.3,0,8c0,2.5,1.7,4.8,1,7.6c2.2-0.9,3.4,0.8,5,0.9c4.1,0.5,7.9,2.5,12.2,1.9c4.8,2.5,10.2,2.1,15.3,2.7
			c5.4,0.7,11,2,16.5,1.3c1.3,0,2.7,0,4,0c-0.1,0.9,0.6,0.9,1.2,1c3.7,0.7,7.1-1.1,10.8-1c1.8,0,4.1,0.7,5.4-0.2
			c1.7-1.1,3.2-0.9,4.7-0.7c1.9,0.2,3.3-1.5,5.1-1.1c3,0.7,5.6-1.4,8.6-1c1.7-1.7,4.1-0.5,6-1.3c3.4-1.3,6.9-1.7,10.4-2.8
			c3.8-1.2,7.7-2.1,11.4-3.8c9.7-4.6,19-10.3,29.6-12.9c3.4-0.8,6.8-2.1,10.1-3.3c6-2.1,12-4,18-5.9c4.7-1.5,9.2-3.9,14.3-4.2
			c0.4-1.9,3.1,0.2,3.4-1.9c1.4,0.2,2.3-0.4,2.9-1.8c-1.1-0.5-1.5-2-2.9-2.2c-0.6-1.1-1-2.3-1.8-3.2c-5.1-5.9-9.9-12.1-13.2-19.3
			c-2.1-1.2-2.1-4.1-4-5.5c0-0.7-0.3-1-1-1c-0.2-0.8,0.5-1.9-1-2c-0.2-1.1-0.9-1.8-2-2c-0.2-0.8,0.5-1.9-1-2c0-0.7-0.3-1-1-1
			c0-0.7-0.3-1-1-1c-0.2-0.8,0.5-1.9-1-2c-0.3-0.7-0.7-1.3-1-2c0-0.7-0.3-1-1-1c0-0.7-0.3-1-1-1c0-0.7-0.3-1-1-1c0-0.3,0-0.7,0-1
			c0-0.7-0.3-1-1-1c0-0.7-0.3-1-1-1c0-0.3,0-0.7,0-1c0-0.7-0.3-1-1-1c0-0.7-0.3-1-1-1c0-0.7-0.3-1-1-1c-0.2-0.8,0.5-1.9-1-2
			c0-0.7-0.3-1-1-1c-0.2-0.8,0.5-1.9-1-2c0-0.7-0.3-1-1-1c0-0.3,0-0.7,0-1c-1-0.8-0.3-2.7-2-3c0-0.7-0.3-1-1-1
			C512,205.7,512,205.3,512,205z M346,350c-2.3,0.1-4.6-0.3-6.8,1c2.9,0,5.9,0,8.8,0c2.1,0.5,3.8-1.3,6-1.1c1.9,0.2,4,0.4,5.9-0.5
			c-4.5-0.3-9-0.3-13.6-0.2C346.2,349.2,346.1,349.7,346,350z M302,33c-0.5,0-0.9,0-0.8,0.7c0.9,0.6,1.9,0.2,2.8,0.3
			c-0.1,1,0.6,1.1,1.3,1c3.6-0.4,7,0.9,10.5,1.2c4.2,0.4,8.3,2,12.6,1.8c0.7,0,1.2,0.3,1.7,0.6c1.5,0.8,3.3-0.1,4.8,0.5
			c1.7,0.6,3.1,1.5,4.6,0.8c1.4-4.2-0.6-7.9-0.6-11.7c0-5,0-10,0-14.9c0-0.8,0.4-1.7-0.9-2.4c-2.5,2.4-6,3.5-9,5.4
			c-3.9,2.5-7.9,5.1-11.8,7.6c-1.6,1.1-3.4,2.3-5.2,3c-2,0.7-3.6,2-5.1,3.2S303.3,31.5,302,33z M231,348c-4.7,0.1-9.4-0.2-13.9,0.2
			c-0.4,1.4,0.4,2.2,1,2.4c3,0.7,5.7,2.6,8.9,2.4c0.7,2.1,2.5,0.7,3.7,1.2c6.9,2.8,14.2,3.8,21.5,4.9c2.2,0.3,4.3,0.8,6.5,1.2
			c3.1,0.7,6.1,1.6,9.3,1.7c0.8,0,2-0.4,2.4,0.1c1.7,1.7,3.8,0.9,5.6,0.8c2.2-0.1,3.9,1.5,6.1,1.1c4.2-0.6,8.3,1.6,12.6,1
			c0.3,0,0.7-0.1,0.9,0.1c2,1.8,4.2,0.5,6.6,0.7c-3.6-5.1-6.4-10.1-7.6-16.2c-2.1,1.3-3.6-0.7-5.6-0.7c-4,0.1-8,0-12,0
			c-3.8,0-7.7-0.2-11.5,0.1c-4,0.3-7.7-1.2-11.6-1.1C246.3,348.1,238.7,348,231,348z M345,294c0.5,1,1,2,2,4c0-4.6,0-7.9,0-11.3
			c0-0.5-0.4-0.9-1-0.7c-0.5-12.3,0.7-24.7-0.8-37.1c-0.9-6.9,0-14-0.2-21c-0.1-6.9,0-13.7-0.8-20.6c-0.9-8.2-0.1-16.6-0.2-25
			s0.1-16.7-0.8-25.1c-1.1-9.4,0.9-19.1-1.1-28.5c0.7-12.2-1.1-24.4-1-36.6c0-4.3-0.2-8.7,0.1-13c0.2-3.5-1.4-6.7-1.3-10.6
			c-1.2,1.5-0.2,3-0.8,3.8c-1.4,1.9-1.5,4.3-1.7,6.2c-0.2,2.3-1,4.4-1.4,6.5c-0.4,2.4-0.2,4.9-0.9,7.1c-1.5,4.4-1.3,9-2.8,13.3
			c-0.7,2-0.2,4.3-1,6.6c-0.8,2.2-0.6,4.7-1,7.1c-0.7,4.4-0.3,9-1.1,13.6c-0.8,4.6,0.1,9.4-1,14.1c-0.8,3.5-0.2,7.3-1,11.1
			c-0.7,3-0.4,6.3-0.1,9.5s-1.1,6-1.1,9.1c0.1,11.7,0,23.3,0,35c0,1-0.4,2.3,0.1,2.9c1.8,2.3,0.9,4.8,0.8,7.1
			c-0.1,2.5,1.4,4.6,1.2,7.1c-0.2,2.8,0.1,5.7,0.7,8.6c1.4,6.8,2.8,13.5,4.1,20.3c1.4,7.2,4.1,14,6.9,20.6
			C342,283.3,343.3,288.7,345,294z M342.9,306.4c-3-0.9-5.4-1.6-7.8-2.4c-8.1-2.6-15.9-5.9-23.3-10.1c-4.1-2.4-8.7-3.2-12.6-5.9
			c-3.4,0.1-6.4-2.1-9.7-1.9c-3.6,0.2-7-1.1-10.6-1.1c-9,0.1-18,0-27,0c-1,0-2.2-0.4-3,0.1c-2.6,1.6-5.4,0.8-8.1,0.9
			c-2.7,0.1-5.2,1.6-8.1,1.1c-2.4-0.4-4.6,1-6.8,1.5c-9.1,2.2-17,7.2-25.5,10.7c-6.8,2.8-13.4,6.3-20.2,9.1c-4.5,1.8-9.1,3-13.5,4.8
			s-9,3.3-13.5,4.8c-1.2,0.4-2,0.9-2.2,2.2c0.8,2,2.1,3.6,3.6,5c2.7,2.7,6.2,4.5,9,7.1c3.5,3.2,7.7,4.1,12.1,4.7
			c2.7,0.4,5.4,0.2,8.1,1c3.8,1.1,7.6,2.2,11.6,2.1c1.8,2,4.4,0.1,6,1.1c2.1,1.5,4.2,0.8,6.2,0.8c24.8,0.1,49.6,0.1,74.5,0
			c4.5,0,8.9,1.9,13.2,0.9c6-5.1,13-8.2,18.8-12.9c1.6-0.7,2.2,1.1,3.7,1.1c9.6-0.2,19.3-0.1,29-0.1c0-7,0-13.8,0-20.6
			C345.5,309,344.1,307.6,342.9,306.4z M545.4,321.2c-3.9-0.1-7-1.7-10.3-2.6c-4.3-1.2-8.3-3.7-13-3.6c-2.9-1.8-6.4-0.9-9.4-2.6
			c-2.2-1.2-5-1.8-7.5-2.2c-6.1-1.1-12.4-1.4-18.6-2.1c-3.3-0.4-6.7-0.1-9.8,1.6c-1.6,0.9-3.6,1.1-5.4,1.3c-5.2,0.6-10,2.4-15.1,3.5
			c-4.3,0.9-8.5,2.1-12.9,2.6c-2.5,0.3-5.3,0.4-7.5,1.2c-2.5,0.8-4.8,0.8-7.2,0.6c-2.5-0.2-4.6,1.5-7.1,1.2c-3.5-0.4-7-0.4-10.6-0.9
			c-5.6-0.9-11.4,0.4-17.1-1.1c-2.6-0.7-5.4-0.5-8.1-0.9c-6.1-0.9-12.1-2.5-18.2-3.1c-1.2-0.1-1.9-2.5-3.5-0.6
			c0.2,5.7-0.6,11.6,1.4,17.3c3.6,0.5,7.3-0.4,10.9-0.7c8-0.8,16,0.4,24.1-1c5.2-0.9,10.6-0.2,16-0.1c0.9,0,1.8,0.2,2.8,0.5
			c3.6,1.2,6.3,3.5,8.7,5.8c0.4,1.4-0.4,2.7,0.3,3.4c3.6,1.1,6.7-0.8,9.9-0.7c4.9,0.2,9.7-0.3,14.6,0.8c4.1,0.9,8.7,0.5,12.9,0.1
			c4.1-0.4,8,1.2,12.2,0.3c4.5-1,9.3-0.2,14.1-0.9c4.5-0.7,9.1-1.2,13.7-2.1c5.5-1.1,10.8-3,15.8-5.2c3.5-1.6,6.9-3.6,10.5-4.8
			c3.7-1.2,7.2-3.1,11.2-3.1C543.8,322.9,544.4,322,545.4,321.2z M559,317.5c-3.5-3.1-6.8-6.5-10.4-9.6c-5.2-4.5-10.7-8.7-15.3-14
			c-1.2-1.4-2.5-2.6-3.8-3.9c-1.4,0.2-2.5,0.1-3.9,0.6c-4.5,1.7-9.1,2.9-13.7,4.4c-3.9,1.3-8,2.5-11.7,4.3c-3.7,1.7-7.3,3.7-11,5.6
			c3.5-0.7,6.7,1.7,10.1,1.1c3-0.5,5.6,1.2,8.6,1.2c1.2,0,2.9,0.6,4.3,1.4c1.4,0.8,3.3,0.9,4.9,1.4c4,1.2,8.3,1.4,12.2,3
			c3,1.2,6.3,1.4,9.3,2.9c2,1.1,4.6,1.2,6.5,2.3c2.3,1.2,4.9-0.2,6.8,1.8c0.2,0.2,1.2,0.2,1.4,0C555,318.3,557.5,319.1,559,317.5z
			 M559.5,314c2.3-5.5,2.4-11.1,3.2-16.5c0.5-3.4,0.9-7.1,1.5-10.5c0.5-3.1,0.4-6,0.8-9c-10.8,4.1-21.7,6.7-32.8,10.7
			c2.2,2.2,3.7,4.4,5.7,5.6c2.8,1.6,4.8,3.9,6.9,6.2c2.1,2.3,5,3.7,7.1,5.9C554.4,309,556.9,311.4,559.5,314z M468.9,349.1
			c0-0.4,0-0.7-0.1-1.1c-2.1,0-4.3,0.1-6.4,0c-10.4-0.7-20.6,1.5-30.9,1c-0.5,0.5-1,1-1.4,1.4c0,1.2,0,2.3,0,3.2
			c2.6,1.4,4.8-0.4,7.1-0.6c3-0.3,6-1.4,9.1-1c1.4-1.6,3.4-1.1,5.1-0.9c2.1,0.3,3.7-1.3,5.6-1C461,350.6,464.8,348.3,468.9,349.1z
			 M332.5,338c-1.9,2.4-1.5,5-1.5,7.5c1.2,0.8,1.7,2.4,3.3,2.5c1.7-1.1,2.1-2.8,2.9-4.7C335.5,341.9,337.1,337.7,332.5,338z
			 M315.9,344.4c1.6,0.5,2.7,1.9,3.7,1.7c1.5-1.2,2.5-1.9,3.5-2.7c-0.2-1.2,0.4-2.4-0.5-3.4c-1.4,0.6-1.7-1.6-2.5-1.3
			C317.6,340.4,316.6,342.3,315.9,344.4z M345,340.6c0.1,1.1-0.3,2.2-0.2,2.4c1.9,2.8,3.6,2.1,5.1,1.9c0-1.8,0-3.2,0-4.4
			C348.2,338.5,346.8,338.4,345,340.6z"/>
		<path class="st2" d="M142,351c0.8,1.9,2.8,2.8,3.9,4.6c0,0.6,0.7,1.7-0.5,2.4c-0.3,0-0.9,0-0.9-0.1c-0.8-3.2-4-4.1-6.1-5.8
			c-3.7-2.9-8.1-4.6-13.2-4.3c-2.4,0.1-4.1,1.4-6.2,2.1c-3.7,2.4-6.1,6.2-9.9,8.5c-4.2,2.7-8.4,3.3-13.1,1.5
			c-1.1-2.4-3.7-3.5-4.6-6.1c-0.9-2.7-3.3-4.2-5.4-6c-2.7-2.3-6.1-2.9-9.1-4.5c-2.9-1.5-12.2-3.5-15-3.4c-5.1,0.1-10.2,1-15.1,2.2
			c-2.9,0.7-6.1,1.1-8.8,2.8c-0.8,0.2-1.9-0.5-2,1c-0.3,0-0.7,0-1,0c-0.8,0.2-1.9-0.5-2,1c-0.7,0-1.3,0-2,0s-1,0.3-1,1
			c-0.3,0-0.7,0-1,0c-0.8,0.2-1.9-0.5-2,1c-2.6-0.6-4.9,1.5-7.5,1c-1.4,1.8-3.7,0.2-4.9,1.1c-1.6,1.2-3.1,0.6-4.6,0.9
			c-3,0.6-6,1.3-9,2c0-0.7,0-1.3,0-2c3.8-1.9,7.9-2.8,11.8-3.9c10.8-3.2,21.3-7.2,32.1-10.5c2.5-0.8,5.1-2,7.8-1.5
			c2.2,0.4,3.9-1.2,6.1-1.1c5.2,0.1,13.5,1.6,20.2,4.5c2.7,1.2,5.3,2.5,8,3.6c2,2,4.7,3.4,6.1,6.2c0.7,1.4,1.9,2.6,2.9,3.8
			c-0.2,2.2,1.4,3.1,3,4c0,1.3,1,1.1,1.7,1c3.5-0.8,7.3-1.2,9.3-5c1.1-0.2,1.8-0.9,2-2c2.8-1.9,5.3-4.3,9.1-6c0.6,0,1.9,0,3.2,0
			c0.5,0,0.9-0.4,0.8-1c0.7,0,1.3,0,2,0c-0.1,0.6,0.3,1,0.8,1c4.3-0.2,7.7,2,11.2,4c0.3,0,0.7,0,1,0
			C140.2,350.1,140.9,350.8,142,351z"/>
		<path class="st2" d="M595,378c3.3,0,6.7,0,10,0c0,0.7,0,1.3,0,2c-4.2,0.9-8.2,2.6-12.6,2c-2.6,2.2-5.9,0.2-8.8,1.7
			c-2.5,1.4-5.6,1.6-8.4,2.6c-6.2,2.2-13.3,2.2-18.9,0.7c-3.3-0.9-5.5-3.6-8.2-5.5c-1.6-1.1-2.6-2.8-4.6-3.3
			c-6.6-0.6-13-0.3-18.5,3.9c-0.7-0.2-1.1-0.4-1-1.1c-0.2-3.2,2.6-4.2,4.5-4.8c4.5-1.4,9.1-3.1,13.9-2.1c1.7,0.3,3.5,0.9,5.2,1.9
			c3,1.8,4.9,5,8.4,6c0.7,0.3,1.3,0.7,2,1c0.3,0,0.7,0,1,0c0.1,1.5,1.2,0.8,2,1c1.3,0,2.7,0,4,0c1.5,0,3.2,0.5,4.5-0.1
			c3.3-1.4,6.6-2.6,10.2-3.2c1.6-0.2,3.1-1.3,4.8-1.7c1.7-0.4,3.4,0.3,5.2-0.9C590.9,377.3,593.2,378,595,378z"/>
		<path class="st3" d="M131,257c2.5,0.7,5.2,1.2,7.6,2.2c2.4,1,4.7,2.5,6.9,3.8c2,1.2,2.5,3.8,4.4,5.3c0,2,0,4.1,0,6.3
			c-1,1-2.1,2.1-3.2,3.2c-0.8,0.6-2-0.3-2.7,0.7c-0.6,0.8-1.6,0.7-2.3,0.5c-2.8-1.2-5.7-1.7-8.7-1.9c-3.2-0.2-6.3,0-9.3,0
			c-4.8,2.7-9,6.1-13.4,9.1c-6.2,4.3-13.2,5.8-20.5,4.7c-4.4-0.7-8.6-3.1-11.8-6.4c-2.8-2.8-6.2-4.6-9.1-7c-1.1-0.9-2.9-0.2-3.9-1.5
			c-3.6,0.2-6.9-1.4-10.6-1.1c-3.6,0.3-7.3,0.2-11,0c-3.1-0.1-5.9,2-9.3,0.8c-0.3-0.3-0.8-0.8-1.2-1.2c-0.4-5,0.6-9.6,4-13.5
			c1-0.2,1.1,1.3,2.2,1c0.9-0.4,1.9-0.9,2.8-1.4c8.1-5.1,16.5-9,26.4-8.5c1.2,0.1,2.3,0,3.5,0c0.6,0,1.4,0,1.9,0.3
			c2.3,1.6,5.3,1.8,7.5,3.7c2.8,2.5,6.4,3.9,8.8,7c1.1,2.1,3.1,3.3,4.4,5c2.1,0,4.1,0,6.1,0c0.4-0.6,1.3-0.9,1.2-2c-1.4,0-2.7,0-4,0
			c-0.5,0-0.9-0.4-0.8-1c2,0,4,0,6,0c0.1,0.3,0.2,0.8,0.3,0.8c0.6,0.1,0.7-0.3,0.7-0.8c1.1-1.1,2.6-0.9,3.9-1.4
			c4.4-1.8,8.8-3.5,13.2-5.2c2.6-1,5.3-1.6,7.9-2.4C129.1,257.5,130.2,256.8,131,257z"/>
		<path class="st3" d="M139,349c-3.5-2-6.9-4.3-11.2-4c-0.5,0-0.9-0.4-0.8-1c0.2,0,0.4,0.1,0.5,0c0.2-0.2,0.3-0.4,0.6-1.1
			c-1.8,0.2-3.4-0.3-5.1,0.5c0.7,0.9,1.4,0.5,2,0.6c0.1,0.6-0.3,1-0.8,1c-1.3,0.1-2.6,0-3.2,0c-3.8,1.7-6.3,4.1-9.1,6
			c-0.9,0-1.9,0-2.8,0c-0.7,0-1.2,0.1-1.2,1c-3.6,0-7.2,0-10.8,0c-0.7,0-1.3,0.1-1.2,1c-1-1.3-2.2-2.4-2.9-3.8
			c-1.4-2.8-4-4.1-6.1-6.2c-0.1-5.3,2.4-9,7-11.5c5-2.7,9.6-5.9,14.2-9.2c3.8-2.8,8.4-4.2,12.7-4.4c5-0.2,9.9,0.5,14.7,2
			c0.5,0.1,1,0,1.5,0c1.5,1.7,3.6,2.3,6,3.3c0-1.1,0-1.7,0-2.3c1.9,1.6,1.7,4.3,3.4,6.2c1.3,1.4,2.5,3.3,4,4.7
			c3.3,2.9,6.8,5.5,10.6,7.7c0,0.4,0,0.9,0,1.4c-0.2,0-0.5,0-0.5,0c-0.6,2.6-1.1,5.1-2.7,7.4c-1.1,1.2-3.1,1.2-4.1,2.4
			c-3.5,1.1-6.5-0.6-9.7-0.8c-0.5-1.9-2-0.6-3-1c0.1-0.6-0.3-0.9-0.8-1C139.6,347.9,138.9,348.1,139,349z"/>
		<path class="st2" d="M129,256c-2.6,0.8-5.3,1.5-7.9,2.4c-4.4,1.6-8.8,3.4-13.2,5.2c-1.3,0.5-2.8,0.3-3.9,1.4c-0.3,0-0.7,0-1,0
			c-2,0-4,0-6,0c-0.7,0-1.3,0-2,0c0-0.7-0.3-1-1-1c-0.6-0.1-1.4,0.3-1.8-0.3c-0.6-0.8-1.4-0.7-2.2-0.7c-2.4-3.1-6-4.5-8.8-7
			c-2.2-1.9-5.1-2.1-7.5-3.7c-0.5-0.3-1.2-0.3-1.9-0.3c-1.2,0-2.3,0-3.5,0c-9.9-0.5-18.4,3.4-26.4,8.5c-0.9,0.6-1.9,1-2.8,1.4
			c-1.1,0.3-1.2-1.2-2.2-1c0.8-1.2,1.3-2.4,2.7-3.4c5.9-4.3,12.2-7.3,19.4-8.7c7.3-1.4,13.4-1.6,19.7,1.2c3.1,1.4,6.1,3.3,8.6,5.8
			c2.7,2.8,6,4.5,9.7,5.7c1.9,0.6,3.9,0.7,5.7,0.1c2.8-1,5.7-1.5,8.3-2.8c4.8-2.3,9.9-3.6,14.8-5.3c7.3-2.5,15.6-1.3,21.4,3.2
			c0.6,0.4,0.9,1,0.6,2.1c-2.8-0.3-5.2-2.4-7.9-2.8c-2.9-0.4-6-0.1-9-0.1C130.3,256,129.7,256,129,256z"/>
		<path class="st4" d="M129,256c0.7,0,1.3,0,2,0c0,0.3,0,0.7,0,1C130.2,256.8,129.1,257.5,129,256z"/>
		<path class="st3" d="M96,360c4.6,1.9,8.8,1.2,13.1-1.5c3.8-2.4,6.2-6.1,9.9-8.5c0,1.6,2.1,0.6,2.4,2c0.6,0,1.3,0.1,1.9,0
			c7.3-0.8,13,3,18.7,6.6c1,0.6,2,1.5,2.4,2.5c0.5,1.5,1.7,2.3,2.5,3.5c0.9,1.3,2.6,1.3,3.5,2.4c4.6,0.9,8.7-1.5,13.1-2.2
			c4.9-0.8,11.4-1.1,15.1,0.5c4.7,2,9.2,4.3,13.6,6.8c1.1,0.6,2.3,1.5,2.6,2.8s1.5,1.7,2.1,2.7c0,2.5,0,5,0,7.5
			c-1,0.2-1.9-0.2-2.6-0.9c-1.5,1.7-3.4,0.9-5.1,0.9c-4.6,0.1-8.7,1.2-12.3,4c-2.7-2.9-5.8-2.2-9.1-1.4c-1.7,0.4-3.1,1.6-4.9,1.4
			c-1.4,0.5-2.7-0.6-3.5-1.2c-6.7-5.2-14.4-7-22.6-6.8c-4.5,0.1-9.1-0.8-13.5,1c-2.5-0.6-4.8,0.6-7,1.2c-2.1,0.6-4,1.5-6.2,1.9
			c-1.5,0.2-3.3,0.8-4.1,2.5c0.9,0.7,1.9,0.2,2.9,0.4c-0.9,2.7-4,2.2-5.5,4c-2.6-0.4-4.9,1.4-7.6,1c-3.7-0.5-7.4,0.2-11.2-0.6
			c-4.4-1-8.1-3-11.8-5.1c-4.3-2.4-8.5-5.2-12.8-7.7c-3.6-2-7.2-4.1-11.5-4.7c-1.7-0.2-3.2-1.3-5.1-1c-1.6,0.3-3.2,0.2-4.6-1
			c-0.1-0.1-0.3-0.1-0.5,0c-3.4,1.5-6.6,0.9-10.2,0.1c-3.5-0.7-7.3-0.2-10.9-0.2c-0.5-1-1-2-1.5-3c1.7-1.7,0.9-3.9,1.1-6
			c1.6-1.1,1.2-3.2,2.2-4.7c2.2-3.3,5.3-5.8,8.4-8.1c1.4-1,3.2-2.5,5.4-2.2c0.8-0.2,1.9,0.5,2-1c0.7,0,1.3,0,2,0c1-0.4,2.5,0.9,3-1
			c4,0,8,0.2,11.9,0c6.5-0.4,12.4,1.7,18,4.6c4.4,2.2,8.4,5.2,12.8,7.6c3.4,1.9,6.5,4.5,10.9,3.8C94.3,361.9,95.7,361.4,96,360z"/>
		<path class="st3" d="M125,444c-1.6-3-3.8-5.6-6.6-7.9c-1.1-0.4-2.4-0.1-3.9-0.8c-2.5-1.1-5.1,0.8-7.7,1.4c-4.1,1-7.6,3.3-11.3,5.2
			c-2.8,1.4-5.7,3-9.3,1.8c-0.5-0.5-0.1-1.8-1.1-2.2c-0.8-4.3,0.5-8.4,1.3-12.4c0.5-2.4,1.3-5,2.9-6.7c1.8-2.1,2.8-5,5.2-6.3
			c3.3-1.8,5.8-5,9.5-6c11.9-3.4,13.7-3.5,22.4-1.1c8.1,2.1,13.3,7.8,18.2,14.3c4.3-1.9,8.4-4.5,13.1-5.5c2.6-0.6,5.1-2,7.8-1.6
			c1.8,0.3,2.9-1.4,4.6-1.1c1.6,0.2,3.3,0.1,5,0c8.3-0.1,15.8,1.8,22.6,6.9c4.3,3.2,5.5,5.8,7.5,10.9c1.4,3.7-0.4,6.5-0.4,9.7
			c0,1-1.2,2.2-2,3.1c-1.3,1.5-2.8,2.8-3.7,3.7c-4.8,2.3-8.6,2.2-11.1-2.4c0.6-0.1,1.3,0.3,1.9-0.4c0-0.7,0-1.5,0-2.2
			c-9.5-4.2-19.1-7.7-29.7-6.1c-1.4,1.4-3.5,2.6-4.1,4.3c-1.1,3.3-3.6,5.2-5.6,7.4c-1.9,0-3.8,0.5-5.2-0.1
			C138.9,447,131.9,445.6,125,444z"/>
		<path class="st3" d="M561,384c-0.8-0.2-1.9,0.5-2-1c0.5,0,0.9,0,0.8-1c-0.6,0-1.2,0-1.8,0c0.1-0.6-0.3-0.9-0.8-1
			c-0.7-0.1-1.3,0-1.2,1c-3.5-1-5.4-4.2-8.4-6c-1.7-1-3.5-1.5-5.2-1.9c-4.8-1-9.4,0.7-13.9,2.1c-1.9,0.6-4.7,1.6-4.5,4.8
			c-2.9-1.5-6.3-1.7-9-3.5c-0.7-0.5-0.8-1.3-1.1-2c-1-2.2-3-4-1-6.9c1.4-2,2.2-4.1,4.5-5.7c5.3-3.6,11.1-5.3,17.2-6.9
			c5.2-1.4,10.4-1.9,15.7-2.1c2.3-0.1,4.5,0.7,6.7,0.1c2.5-0.6,4.6,1.1,7.1,1.1c1.7,0,2.9,1.5,4.6,2c5.5,1.6,11.1,2.8,16.5,4.8
			c2.4,0.9,4.5,2,6.7,3.2c2,1.2,3.8,2.8,6.3,2.9c0.2,1.6,2.9,2,1.7,4.7c-1,1.7-3.6,2.9-4.7,5.3c-1.8,0-4.1-0.7-5.4,0.2
			c-1.8,1.2-3.5,0.4-5.2,0.9c-1.6,0.4-3.1,1.5-4.8,1.7c-3.6,0.5-6.9,1.7-10.2,3.2c-1.3,0.5-3,0.1-4.5,0.1
			C563.7,382.6,562.3,382.6,561,384z"/>
		<path class="st1" d="M260.5,421c0.6,0.6,1.1,1.5,1.8,1.8c4,1.5,4.9,4.7,4.7,8.5c-0.1,2,0,4,0,6c-1.1,1.4-1.2,3.4-3.4,4.2
			c3.7,2,6.2,4.7,7.9,8.3c1,2.2,1.6,4.1,1.5,6.4c0,2.3,0,4.7,0,6.5c-1.2,3.9-3.5,6.5-6.1,9c-3.6,3.4-7.8,5.3-12.8,5.4
			c-3.7,0-7.3-0.2-11,0.1c-2.8,0.2-4.7-1.6-7-2.5c-1.3-0.5-0.9-2.4-2.1-3.1c0-5.3,0.3-10.7-0.1-16c-0.4-5.1,0.7-10.1,1.3-15.1
			c0.6-4.9,0.6-10.1,2.7-14.9c1.3-1.1,2.5-2.2,3.9-3.4C247.7,420.3,254.1,421.2,260.5,421z M255.3,466.9c2.5-1.5,5-2.2,6.7-4.3
			c1-1.3,1.7-2.6,2.1-4.1c0.5-1.9-0.9-3.4-1.3-5c-0.6-2.4-5.8-4.5-8.3-3.2c-1.7,0.8-3.1,0.6-4.7,0.7c-1.9,0.1-3.9,0-5.8,0
			c0,2.3,0,4.1,0,5.9c0,1.7-0.2,3.4,0.1,5c0.3,1.8-1.2,3.2-1,5C247.3,466.9,251.3,466.9,255.3,466.9z M246.1,431.4
			c-0.5,3.3,0.5,6.4-0.8,9.7c5.1-0.7,9.7-2,12.7-6.9c-0.1-1.2,0.6-3-1.7-4.1c-2.8,0-5.8,0-8.9,0C247,430.5,246.7,430.8,246.1,431.4z
			"/>
		<path class="st1" d="M502,477c1-2.2,2-3.9,3.7-5c0.8,0,1.7,0,2.9,0c0.6,0.8,1.4,1.8,2.5,3.1c0.5,5.7-1.8,11.8-1,18
			c-2.2,7.9-0.2,16.1-1.3,24.5c-0.8,1.2-1.4,3.1-3.4,4.3c-1,0-2.3,0-4,0c-1.2-1.8-3.4-2.9-4.5-5.3c-3.4-7.3-7.3-14.3-10.9-21.5
			c-0.4-0.9-0.9-1.5-1.7-2c-0.8,6.2-1.7,12.3-1.3,18.5c0.2,3.2-1.9,6.3-0.9,9.4c-1,1.2-1.1,2.8-2.5,3.8c-1.6,0-3.4,0-5.5,0
			c-0.8-2.6-3.4-4.9-1.3-8.2c0.2-0.4,0.3-0.9,0.2-1.4c-0.7-5.8,1.4-11.4,0.9-17.1c-0.2-2.2,1.3-3.9,1.2-6.1
			c-0.1-1.8-0.6-3.7,0.7-5.7c0.8-1.1,0.1-3.2,0.1-4.9c1.2-1.2,2.4-2.3,3.6-3.5c2,0,4,0,5.9,0c7,5.8,9.1,14.7,14.2,21.9
			c-0.1,0,0.2,0.1,0.5,0.1c0.1,0,0.3-0.1,0.4-0.1c0.1-0.1,0.3-0.2,0.3-0.4c0-4,0-8,0-12C501,483.8,502.9,480.2,502,477z"/>
		<path class="st1" d="M278,451c-0.4-5.4,1-11.3,4-16.9c1.2-2.2,2.9-3.8,5-5.1c3.4-2.1,7-3.6,11.2-3c2,0.3,4,0,6,0
			c5.5,0.1,9.6,2.5,12.8,7c2.9,4,4.1,8.5,4,13.4c0,1.5-0.2,3,0,4.5c0.5,4.1-1.7,7.7-2,11.7c-3.6,6.7-8.7,11.6-16.2,13.4
			c-1.4,0.3-2.7,1-4.1,1.1c-2.9,0.2-5.5-0.7-8.2-1.9c-6.2-2.6-9.2-7.7-11.6-13.5C277.7,458.4,278.1,455.2,278,451z M292.5,435
			c-3.1,2.5-4.1,6.1-4.5,9.9c-0.1,1,0.2,1.9-0.3,2.9c-2.1,4.3,0.4,12.3,4,16.1c1.6,1.7,4,3.1,6.7,3c4.1-0.1,10.5-4.6,11.6-8.7
			c1.1-4.3,2.8-8.5,2-13.1c-0.4-2.1-0.8-4.2-2.1-6.1c-1.2-1.7-3.1-2.5-4.3-4.1C301.2,435,296.9,435,292.5,435z"/>
		<path class="st1" d="M345.5,423c1.9,0,3.9,0,5.9,0c5,4.1,6.5,9.9,7.5,15.8c0.3,1.9,1,3.6,1.3,5.5c0.2,1.5,0.3,3.2,0.8,4.6
			s1.2,2.7,0.9,4.1c-0.3,1.6,1.4,2.5,1.1,4.1c-0.2,1.2,0.6,2.5,0.8,3.6c0.5,3.2,0.2,6.6,0.2,9.7c-1.5,2.4-3.7,1.4-5.3,1.6
			c-3.6-2.1-3.7-5.9-4.5-9.2c-0.5-2.1-1.1-4.3-1.3-6.5c-2.9,1.2-6,0.8-8.9,0.6c-3-0.2-5.6,1.3-8.9,1.2c-1.6,4.2-3.3,8.5-6.5,12.5
			c-0.8,0.2-1.8,1.6-3.2,1.4c-1.7,0-1.9-1.8-3.1-2.2c-0.7-3.3,0.5-6,1.7-8.8c3.2-7.3,6.4-14.7,10-21.8
			C337,433.2,340.5,427.6,345.5,423z M347.5,434.9c-3.8,3.9-5.2,9.1-7.8,13.7c4.2,1.2,7.5-1.6,11.6-0.4
			C349.9,443.4,349.8,439,347.5,434.9z"/>
		<path class="st1" d="M232.2,537.7c-0.5-0.5-1.2-1.2-2.3-2.3c0.5-3-0.8-6.4,1-9.6c0.4-0.6,0-1.6,0.1-2.5c0.3-2.5-0.6-5.1,0.7-7.7
			c1.1-2.3-0.5-5.1,1.2-7.5c0.7-1-0.1-3,0.2-4.4c0.7-4.3,1.4-8.7,4.8-12c1.8-1.8,3.8-2.7,6.4-2.8c3.3-0.1,6.4,0.4,9.6,1.1
			c1.3,0.3,2.6,0.9,3.7,1.9c6,5.3,9.1,12,8.4,19.9c-0.4,5.1-2.3,10-6.1,13.9c-4.3,4.4-9.1,7.8-15.1,9.3c-0.3,0.1-0.5,0.4-0.7,0.6
			C240.5,537.7,236.8,538.6,232.2,537.7z M242.7,497.3c1.3,3.2-1.2,5.8-0.7,8.7c0.7,4.1-1.6,7.9-1,12c-1.9,3.2-0.6,6.6-1.1,10.1
			c2-0.9,3.5-1.7,5.1-2.2c4.3-1.4,7.8-4.1,10.1-8.2c3.2-5.9,2.6-11.4-1.5-16.7c-0.5-0.6-0.7-1.4-1-1.9
			C249.5,498.2,246.7,496.4,242.7,497.3z"/>
		<path class="st1" d="M364.7,525.1c-1,0.8-2.4,0.8-3.2,1.9c-3,0-6,0-8.9,0c-3.4,2.5-2.1,8.1-6.5,10c-2.3-0.6-2.3-0.6-4-3.4
			c-0.9-5.4,1.6-10.2,3.1-15.1c1.7-5.7,4.4-11.1,6.8-16.6c2.2-4.8,5-9.2,9.5-12.8c1.1,0,2.6,0,4,0c4.3,3.1,4.9,7.8,5.6,12.6
			c0.5,3.6,0.2,7.3,1.8,10.7c0.1,0.1,0.1,0.3,0.1,0.5c-0.8,3.8,1.5,7.3,1,11.1c-0.6,3.9,2,7.6,0.8,11.6c-0.6,0.9-1.2,2-1.9,3.2
			c-1.5,0-2.9,0-4.6,0c-2-1.6-1.8-4.3-2.7-6.6C364.5,529.9,365.7,527.4,364.7,525.1z M354.6,519.8c3-2.9,5.8-1.1,8.2-2
			c0.4-0.4,0.8-0.9,1.2-1.3c-1.7-2-0.1-4.5-1-6.2c-1.2-2.1-0.4-4.3-1.4-6.8C358.5,508.6,356.2,513.4,354.6,519.8z"/>
		<path class="st1" d="M294,493.7c0.8-1.3,1.4-2.4,2.1-3.6c1.5,0,2.9,0,4.5,0c0.7,0.7,1.5,1.5,2.3,2.3c0.6,6.3-1.3,12.4-1.1,18.6
			c0.1,3.5-0.8,7.2-2.1,10.5c-1.3,3.4-3.1,6.8-4.9,9.9c-1.3,2.3-3.5,4.3-6.9,5.5c-0.6,0-2-0.1-3.3,0c-6.1,0.4-7-0.7-11.6-5.5
			c-0.7-0.7-1.5-1.2-1.7-1.4c-1.2-5.2-2.4-9.5-2.4-14c0-2.2,1.3-3.9,1.2-6.1c-0.1-1.8-1-4,0.9-5.6c-0.7-3.1,1.2-6,1.1-9.1
			c1-1.3,2.6-1.7,4-2.5c1.1,0.9,2.7,0.9,3.9,2.7c0,3.9,0.8,8.6-0.2,12.8c-1.1,5.1-0.3,10.1-0.8,14.2c1.1,3.7,3.1,5.2,5.1,5.3
			c2.5,0,1.4-1.7,2.5-2.2c0.6-0.3,1-1.1,1.5-1.8c3-5.6,4.8-11.6,4.9-18c0-2.2,1.4-3.9,1.1-6.1C293.8,497.8,294,495.6,294,493.7z"/>
		<path class="st1" d="M208,539c-1.7,0-3.3,0-5,0c-2,0-4,0-6,0c-1.8-0.7-2.6-2.4-4.1-3.5c0.6-2.2-0.6-4.5,0.8-6.7
			c1.2-1.9-0.7-4.6,1.3-6.4c-0.4-3.1,0.4-6.1,1-9.1c1-5.2,2.1-10.5,3.2-15.7c0.4-1.7,1.4-3.8,3-5.2c1.9-1.2,4.2,0.6,6.1-1
			c1.5-1.2,3.9,0.6,5.4-1.4c4,0.4,8.2-1,12,1.2c0.3,1.2,1.7,2.2,1.3,3.8c-0.3,2-2.6,1.6-3.5,2.9c-2.7,0-5.4,0.3-8-0.1
			s-4.5,1.9-7.5,0.8c0.5,2.9-0.7,5.2-1.1,7.9c1.6,0.7,3.3,0.3,4.8,0.3c1.5,0.1,3,0,4.5,0c1.6,1,3.5,1.6,4.7,3.6
			c0.2,1.3,0.4,2.9-1.4,4.2c-4.2,0-8.7,0-12.9,0c-0.5,0.5-0.9,0.9-1.4,1.4c-0.6,4-1.2,8.2-1.8,12.8c0.9,1.4,2.6,1.3,4.4,0.6
			c4.2-1.5,8.1-0.8,12,1.4c0,1.5,0,2.9,0,4.7c-0.5,1.1-2.3,1-3.4,2.2C213.6,537.2,211,539.6,208,539z"/>
		<path class="st1" d="M459.1,483c6.4,3.2,8.9,8.1,8.9,14.6c0,4.4,0.1,8.9-1.3,13c-2.8,7.9-5.1,10.3-12.7,14.3
			c-0.6,0.3-1,0.7-1.5,0.9c-4.4,0.8-8.2-1.1-11.8-2.9c-3.8-1.9-4.6-6.3-6.7-9.5c-0.6-2,0.9-4.3-1.1-6.1c-0.2-0.2-0.1-0.7,0-1
			c1.2-4.6,0.6-9.6,2.3-14c1.7-4.4,5.6-6.7,9.8-8.4c2.5-1,5-0.9,7.6-0.9C454.9,483,457.1,483,459.1,483z M450.4,517
			c4.7-1.9,7.2-4.7,8.4-8.5c0.7-1.5-0.6-3.6,1.2-5c-0.1-4.5,1.1-9.3-3.6-12.5c-1.8,0-3.8,0-5.7,0c-5.2,0-6.7,1.3-7.6,6.4
			c-0.1,0.5-0.2,0.9-0.3,1.4c-1.3,4.4-0.8,9.4,1,13.5C445.1,515.6,447.6,517.1,450.4,517z"/>
		<path class="st1" d="M422,447.2c0-3.1,0-6.6,0-10.1c0-2.9,1-5.7,2.6-7.9c2.2-3.2,5.4-5.5,9-7c1.3-0.5,3-0.1,4.5-0.1
			c1.8,0,3.7,0,5.5,0c0.1,0.1,0.2,0.3,0.4,0.4c6.8,3,9.2,8.6,9.1,15.6c-0.1,3,0.6,6.1-0.9,9.1c-1.1,2.1-2.7,4.4-4.6,6
			c-2.2,1.9-4.5,3.2-7.2,4.3c-2.7,1.1-5.3,0.8-7.7,0.4c-1.9-0.3-4-1.4-5.7-3.3C424.9,452.4,423.5,450,422,447.2z M431,434.6
			c0,2,0.1,4.2,0,6.3c-0.3,3.5,0.9,6.2,3.8,8c2.2,1.4,3.6-1.6,5.6-0.9c3.1-2.2,4.5-5.2,4.6-9c0.1-2.9-1.5-5.4-2.3-8
			c-1.1,0.2-1.6-0.4-2-0.9c-2.6,0-5,0-7.4,0C432.6,431.7,432.2,433.3,431,434.6z"/>
		<path class="st1" d="M376.9,432.4c-0.6-0.6-1-1-1.3-1.3c-4.2-0.7-8.9,1.4-12.5-2.6c0-0.9,0-1.9,0-3.2c0.7-0.5,1.6-1.2,3-2.3
			c-0.4,0.1-0.1,0,0.2,0c7.2-0.2,14.2-1.1,20.9-3.7c2.4-0.9,4.9-0.1,7.2-0.4c0.9,0.9,1.7,1.7,2.6,2.6c0,1,0,2,0,2.9
			c-2.6,3.6-6.3,5.1-11,5.8c0,3.9,0,7.8,0,11.7c0,5-0.1,10,0,15c0,1.6-0.5,3.2,0.8,4.7c0.5,0.6,0.7,2.4-0.2,3.2
			c-1.1,0.9-0.1,2.3-1.3,3.5c-1.8,1.4-4.1,2.8-7.2,0.1c-1.6-2.7-2.3-6.3-2.1-10.3c0.2-4,0.3-8,0-12
			C375.5,441.4,377.7,437.1,376.9,432.4z"/>
		<path class="st5" d="M410,488.7c0,1,0,1.8,0,2.7c-3.3,4.3-8.2,3.5-13,3.6c0,8,0,15.8,0,23.6c0,4.2,0.5,8.5-0.7,12.9
			c-1,0.6-2,1.2-3.1,1.7c0.2,0.2,0.3,0.4,0.5,0.7c-1.5,0-2.9,0-4.4,0c-1.3-1.3-2.3-2.9-2.3-4.9c0-5-0.7-10.1,0.2-14.9
			c1.2-6.2,0.4-12.4,0.9-18.7c-3.7-0.9-8,1-11-2.8c0-0.8,0-1.8,0-3.1c0.7-0.5,1.6-1.2,2.5-1.9c-0.1-0.1-0.2-0.2-0.2-0.2
			c0.1-0.1,0.3-0.2,0.4-0.2c3.5,0.6,6.7-1,10.1-1.1c3.5-0.1,7.2,0.8,10.6-0.9c0.5-0.3,1.6-0.3,1.9,0c1.6,1.5,3.4,0.8,5.3,1
			C408.3,486.8,409,487.6,410,488.7z"/>
		<path class="st2" d="M317.2,508.5c-0.6,2.3,0.9,4.7-1.7,6.4c2.1,1.4,1.3,3.3,1.6,5c0.2,1.7,1.9,2.8,2,4.7c1.3,0.2,2.3,1.1,3.2,2.2
			c4,0.3,8,1.9,12.2,1.1c0.6,1.1,1.1,2.1,1.5,3.1c-0.8,2-1.9,3.7-3.7,5.1c-2.2-0.9-4.1,1.4-6.4,1c-2.2-0.4-4.2-1.6-6.1-1
			c-2.6-1.6-5.1-2.6-7.1-4.6c-2.8-2.7-3.8-6-4.8-9.5c-0.8-2.9-0.8-5.7-0.9-8.6c-0.2-3.9,1.3-7.4,2.3-11c0.7-2.6,3.1-4,4.9-6
			c3.8-4.3,8.9-5.2,14.3-5.4c1.4-0.1,1.7,1.8,3.1,1.1c0.5,1,1,1.9,1.5,2.9c-0.1,0.3-0.1,0.7-0.3,0.9c-1.5,1.7-3.4,2.6-5.6,3.3
			c-4.1,1.3-7.8,3.5-9.1,8.1C317.9,507.6,317.5,508,317.2,508.5z"/>
		<path class="st1" d="M462.3,457.8c-2.4-1.9-3.3-4.7-3.3-7.8c0-6-0.1-12,0-18c0-3.2,1.8-6.2,0.8-9.6c7.1-5.9,15.2-7.1,23.8-6.3
			c1.3,0.7,1.1,2.3,2.2,3.1c-0.7,1.7-1.5,3.4-3.6,4.7c-4,0.3-8.6-0.7-13,1.5c0,2.8,0,6,0,9.5c2.4-0.2,4.7,0.4,7.4-0.7
			c2.2-0.9,5.1-0.6,7.4,1.4c0,1.1,0,2.4,0,3.8c-1,1.6-2.6,2.6-5.3,3.6c-2.5,0-5.9,0-9.5,0c0,3.9,0,7.7,0,11
			c-0.9,1.5-1.5,2.6-2.2,3.8C465.4,457.8,464,457.8,462.3,457.8z"/>
		<path class="st2" d="M422.6,531.9c-0.9,1.3-2.5,1.2-3.6,2.1c-3.9-1.3-5.2-4.1-5.1-8c0.2-5.3,0.3-10.7-0.1-15.9
			c-0.2-2.5,1.4-4.6,1.1-7.1c-0.2-2.3-0.6-4.9,0.1-6.9c0.7-1.9,0.7-3.7,0.8-5.3c0.8-1.3,1.4-2.4,2.1-3.6c1.5,0,2.9,0,4.5,0
			c2,2.1,3.3,4.7,1.9,7.6c-0.7,1.4-0.5,2.5-0.5,3.8c-0.1,7.8-0.1,15.6,0,23.4C424,525.4,424.2,528.8,422.6,531.9z"/>
		<path class="st2" d="M125,444c6.9,1.6,13.9,3,20.5,5.8c1.4,0.6,3.3,0.1,5.2,0.1c1.9-2.2,4.5-4,5.6-7.4c0.5-1.7,2.7-2.9,4.1-4.3
			c10.6-1.6,20.2,1.9,29.7,6.1c0,0.7,0,1.5,0,2.2c-0.6,0.7-1.3,0.3-1.9,0.4c-4.2-1.6-8.4-3.5-13-4c0.1-1-0.6-1-1.3-1
			c-3.8,0-7.5,0-11.3,0c-1.9,2.1-4.4,3.8-4.5,7c-2,1.4-3.3,3.6-5.7,4.9c0,0-0.3,0-0.6,0.1c-6.2,0.9-11.8-1.7-17.6-3.3
			c-3.7-1.1-7.3-3-11.4-2.6c-1.5,0.1-2.4-1.5-4.1-1.1c-1.1,0.2-2.6,0.7-3.7-0.5c-0.1-0.1-0.2-0.2-0.4-0.4c-1.4,2-3.8,0.1-5.4,1.3
			c-1.4,1-2.7,0.6-4.5,0.3c4.7-3.7,9.7-5.2,15.3-4.7c0.5,1.9,2,0.6,3,1C123.7,444,124.3,444,125,444z"/>
		<path class="st2" d="M177,389c3.6-2.8,7.8-4,12.3-4c1.7,0,3.7,0.8,5.1-0.9c0.7,0.7,1.5,1.1,2.6,0.9c3.9,1.3,6,4.9,9,7.4
			c-0.4,0.5-0.8,0.9-1.5,1.6c-1.9-2.6-5.2-3.5-6.9-6c-1.2-0.1-2.2,0.3-2.9-0.8c-0.9,0.5-1.8,1-3,0.8c-2.9-0.5-5.7,0.6-8.5,1
			c-2.4,0.3-4.1,2.1-6,3.4c-5.3,3.7-10.8,3.4-16.6-0.5c-0.9-0.6-1.5-1.1-2.6-1c0.1-0.8-0.6-1.2-1.1-1.5c-5-3-10.4-4.9-16.2-5.4
			c-4.8-0.4-9.6-0.1-14.5-0.1c-0.7,0-1.4,0-1.3,1c-3.6-0.1-7.1,0.3-10.4,1.8c-1.2,0.5-2.9,0.1-4.3,0.2c-0.7,0-1.3,0.1-1.2,1
			c-0.9-0.1-2,0.3-2.9-0.4c0.8-1.7,2.6-2.3,4.1-2.5c2.2-0.3,4.1-1.3,6.2-1.9c2.2-0.7,4.5-1.9,7-1.2c4.4-1.8,9-0.9,13.5-1
			c8.2-0.2,15.9,1.6,22.6,6.8c0.7,0.6,2,1.6,3.5,1.2c2.6,2.9,5.4,3.5,9.1,2.5C174,391,175.4,389.9,177,389z"/>
		<path class="st6" d="M125,385c-0.1-1,0.6-1,1.3-1c4.8,0,9.7-0.3,14.5,0.1c5.7,0.5,11.2,2.3,16.2,5.4c0.5,0.3,1.2,0.7,1.1,1.5
			c-2.3-0.5-4.2,1.4-6.6,1.1c-2.3-0.3-4.6-0.2-7-0.1c-4.5,0.2-8.1-2-11.8-3.9C130.2,386.8,128.1,384.8,125,385z"/>
		<path class="st7" d="M158,449c0.1-3.2,2.6-4.9,4.5-7c3.8,0,7.5,0,11.3,0c0.7,0,1.3,0,1.3,1c-2.2-0.4-4.1,0.6-5.9,1.5
			c-3.2,1.7-6.9,2-9.7,4.5C159.2,449.2,158.5,449,158,449z"/>
		<path class="st3" d="M123,444c-1-0.4-2.5,0.9-3-1C121,443.4,122.5,442.1,123,444z"/>
		<path class="st8" d="M412,311c-5.6,0.7-11.1-0.6-16.5-1.3c-5.1-0.6-10.5-0.2-15.3-2.7c-4.3,0.6-8.1-1.4-12.2-1.9
			c-1.6-0.2-2.8-1.8-5-0.9c0.7-2.8-0.9-5-1-7.6c0-2.7-0.2-5.3,0-8c0.2-2.8-1.5-5.2-1.1-8.1c0.3-2.6,0.7-5.5-0.1-7.9
			c-1.3-4.2-0.2-8.5-1-12.6c-1-5.2-0.2-10.5-1.1-15.6c-0.7-3.8-0.7-7.4-0.7-11.1c0-2.6-1.5-4.9-1.2-7.6c0.4-2.6,0.7-5.5,0-7.9
			c-1.3-4.4-0.1-8.8-1-13.1c-1.1-5.4,0-10.9-1.1-16.1c-1-5.3-0.7-10.4-0.7-15.6c0-4.3-1.5-8.3-1.2-12.6c0.3-4.1,0.7-8.5-0.1-12.5
			c-1.6-7.7-0.6-15.4-0.8-23.1c-0.1-6.2-1.5-12.3-1.2-18.6c0.4-6.3,0-12.7,0.1-19c0-2.1-1.4-3.9-1.1-6.1c0.2-2,0.6-4.2-0.9-6.1
			c0.5-8.3-2.2-16.6-0.7-25c3.2,2.5,7.1,3.5,10.9,4.8c6,2,12,3.9,17.6,7c3.3,1.8,6.5,3.7,9.5,6c7.1,5.5,14.6,10.2,22.5,14.5
			c5.9,3.2,11.3,7.2,17,10.9c5,3.2,9.8,6.6,14,10.9c3,3.1,5.2,6.8,7.4,10.4c3.9,6.4,7.9,12.8,12.6,18.8c4.4,5.5,9,10.9,13.4,16.4
			c3.9,4.8,7.4,9.9,10.7,15c1.6,2.4,3.6,4.4,5.4,6.7c3.8,5.1,7.6,10,10.8,15.6c2.3,3.9,5.1,7.6,7.9,11.2c0.9,1.2,1.3,2.5,2.1,3.7
			c-0.3,0.1-0.6,0.2-1.7,0.7c2.5-0.1,0.8,2.3,2.7,2.3c0,0.7,0.3,1,1,1s1,0.3,1,1c-0.5-0.1-0.8,0.1-0.9,0.6c0,0.1,0.2,0.3,0.3,0.3
			c0.5-0.1,0.7-0.4,0.6-0.9c1.7,0.3,1,2.2,2,3c-0.3,0.1-0.8,0.2-0.8,0.3c-0.1,0.6,0.3,0.7,0.8,0.7c0.7,0,1,0.3,1,1
			c-0.3,0.1-0.8,0.2-0.8,0.3c-0.1,0.6,0.3,0.7,0.8,0.7c0,0.7,0.3,1,1,1s1,0.3,1,1c-0.3,0.1-0.8,0.2-0.8,0.3
			c-0.1,0.6,0.3,0.7,0.8,0.7c0.2,0.8-0.5,1.9,1,2c0,0.7,0.3,1,1,1c0.2,0.8-0.5,1.9,1,2c0,0.7,0.3,1,1,1c0.2,0.8-0.5,1.9,1,2
			c0.2,0.8-0.5,1.9,1,2c1,1.3,2,2.7,3,4c0.2,1.1,0.9,1.8,2,2c0,0.7,0.3,1,1,1c0,0.7,0.3,1,1,1c0,0.3,0,0.7,0,1c0.6,1.4,1.6,2.4,3,3
			c0,0.7,0.3,1,1,1s1,0.3,1,1c-0.5-0.1-0.8,0.1-0.9,0.6c0,0.1,0.2,0.3,0.3,0.3c0.5-0.1,0.7-0.4,0.6-0.9c1.9,1.4,1.8,4.2,4,5.5
			c3.4,7.2,8.1,13.3,13.2,19.3c0.8,0.9,1.2,2.1,1.8,3.2c-0.8,1-1.1,2-1.5,4c0.5,0,1,0,1.5,0c-0.3,2.1-3,0-3.4,1.9
			c-5.1,0.3-9.6,2.7-14.3,4.2c-6,1.9-12.1,3.8-18,5.9c-3.4,1.2-6.7,2.5-10.1,3.3c-10.7,2.5-19.9,8.3-29.6,12.9
			c-3.7,1.8-7.6,2.6-11.4,3.8c-3.4,1-7,1.4-10.4,2.8c-1.9,0.7-4.2-0.4-6,1.3c-2.9-0.4-5.6,1.7-8.6,1c-1.8-0.4-3.2,1.3-5.1,1.1
			c-1.5-0.2-3-0.3-4.7,0.7c-1.3,0.8-3.6,0.2-5.4,0.2c0.1-0.9-0.5-1-1.2-1c-2.3,0-4.5,0-6.8,0c-0.7,0-1.3,0-2,0c-1.6,0-3.2,0-4.8,0
			C412.5,310,411.9,310.1,412,311z M450,221.8c-2.8-4.3-7.3-5.3-11-7.1c-5.2-2.5-9.3-6.2-13.1-10.5c2.9-5.5,4-11.4,5.1-17.4
			c0.4-2.2,0.5-4.5,1.3-6.5c1.3-3.3,0.4-6.5,0.6-9.7c0.2-3.3,0.1-6.7,0-10c0-0.1-0.2-0.3-0.2-0.4c-2.3-6-4.2-12.2-7.7-17.8
			c-2.7-4.3-2.5-4.4-6.7-6.6c-1.1-0.6-2.1-1.3-3.2-1.9c-2.6,0.1-5,0.2-7.6,0.9c-3.6,0.8-6.7,2.5-8.8,5.1c-4.7,6-7.4,13-7.7,20.7
			c-0.3,6,0.2,11.8,1.9,17.7c1.2,4.4,2.8,8.5,5.3,12.3c2.8,4.2,6.6,7.5,9.6,11.5c1.3,1.7,3,3,4.5,4.6c-3.1,10.9-11.3,18.6-16.2,27.9
			c0,1.8,0,3.5,0,4.6c1.9,3.3,5.2,3.6,7.9,4.6c2,0.8,5-0.8,5.9-2.9c0.7-1.6,1.6-3,2.2-4.6c1.7-5.1,3.9-10,5.9-15
			c0.9-2.3,1.5-4.7,3.5-6.3c2.7,1.7,4.8,3.7,6.7,6.2c2,2.9,3.8,6.3,6.9,8.1c2.2,1.3,3.7,3.1,5.5,4.6c1.4,0,2.7,0,3.8,0
			c3-1.9,4.1-5.1,5.6-7.8C450,224.7,450,223.2,450,221.8z M460.3,278.8c1,0.5,2.3,0.4,4.2-0.3c-1.3-0.4-1.5-1.7-3-1.4
			C461.2,277.5,460.7,278.1,460.3,278.8z"/>
		<path class="st9" d="M331,295c-2.9-1.4-5.8-2.8-8.7-4.2c-3.6-1.7-6.8-4.2-10.5-5.9c-6-2.7-11.9-5-18.5-6.1
			c-3.1-0.5-6.1-0.3-9.1-0.9c-10-2-20-0.5-30-0.9c-3-0.1-6,0-9.1,0.9c-2.9,0.8-6.2-0.7-9,1.1c-0.2,0.1-0.7,0-1,0
			c-6-0.6-11.5,1.6-17,3.5c-9,3.2-17.4,7.9-26,11.9c-9.2,4.3-18.4,8.5-28.1,11.6c-3.7,1.2-7.2,2.6-10.8,4c-0.2-1.1-0.9-1.8-2-2
			c2.1-5.2,5.9-9.4,8.1-14.6c0.6-1.3,2-2,2.9-3.3c2.7-3.7,5.5-7.3,8.3-11c3.1-4.1,6.5-8.1,8.8-12.8c0.1-0.2,0.5-0.2,0.8-0.4
			c0.7,0,1-0.3,1-1c-0.7-2.2,1.5-3,2.2-4.5c1.3-2.6,2.7-5.3,4.8-7.5c0,0.5,0,0.9,0.7,0.8c0.6-0.5,0.2-1.2,0.3-1.8
			c0.2-0.8-0.5-1.9,1-2c0.7,0,1-0.3,1-1c-0.4-1.6,1.2-2.2,1.7-3.3c2.5-5.4,7.1-9.5,9.3-15.1c5.8-6.3,8.7-14.4,13.1-21.5
			c4.4-7.3,7.6-15.2,11.9-22.6c3.6-6.2,6.6-12.7,10.6-18.6c1.7-2.5,2.9-5.5,4.4-8.1c5.3-9.3,11.1-18.2,17.5-26.8
			c3.4-4.6,6.9-9.2,10.6-13.6c4.5-5.3,9-10.5,13.1-16.1c11-14.9,24.5-27.4,37.6-40.4c3.4-3.3,7.5-5.9,11.3-8.9c0.1,1.5,1.2,0.8,2,1
			c-0.2,0.9,0.1,1.9-0.3,2.9c-2.4,6.9-4.4,13.9-5.9,21.1c-1.4,6.8-2.9,13.5-3.8,20.4c-1.8,1.8-0.5,4.1-1.1,6.1
			c-0.6,1.9-1.2,3.7-0.9,5.6c0.4,2-1.3,3.6-1.1,5.6c0.1,1.7,0.5,3.5-0.9,5.1c-0.4,0.5-0.1,1.6-0.1,2.4c0,3.3-0.1,6.7,0,10
			c0.1,2.8-0.5,5.4-1,8.1c-0.4,2.5,0.7,5.2-1,7.6c-0.3,0.4-0.1,1.3,0,2c0.7,9.7-1.4,19.3-1.1,29.1s0.1,19.7,0,29.5
			c0,2.3,0.6,4.4,1,6.6c0.4,2.2-0.5,4.4,0.9,6.7c0.7,1.2,0.1,3.3,0.1,4.9c0,3.1,0.2,6.1,0.8,9.1c0.6,2.9,1.5,5.8,1.8,8.7
			c0.5,4.1,1.8,8,2.5,12.1c0.8,5.1,3,10,4.7,15c2.2,6.6,5.8,12.7,7.2,19.5C334.1,293.2,331.8,292.2,331,295z"/>
		<path class="st8" d="M366,398c-7.6,0-15.3-0.6-22.9,0.1c-15,1.5-29.9,0.5-44.9,0.9c-5.8,1.8-11.7,0.8-17.5,1
			c-5.8,0.1-11.6,0.1-17.4,0c-0.8,0-2.1,0.7-2.3-1c2.3,0,4.7,0,7,0c0.7,0,1.3,0,2,0s1.3,0,2,0c1,0,2,0,3,0c0.7,0,1.3,0,2,0
			c1.3-0.2,2.7,0.4,4.8-1c-2.3,0-3.5,0-4.8,0c-0.7,0-1.3,0-2,0c-1,0-2,0-3,0c-0.7,0-1.3,0-2,0s-1.3,0-2,0c-1.7,0-3.3,0-5,0
			c0.1-0.9-0.5-1-1.2-1c-1.6,0-3.2,0-4.8,0c-0.3,0-0.7,0-1,0c-3.4,0.3-6.6-1.8-10-1c0.1-0.9-0.5-1-1.2-1c-0.9,0-1.9,0-2.8,0
			c-1.6-1.4-3.4-1.4-5,0c-5.8-3.4-12-6.3-16-12c1.9-0.5,0.6-2,1-3c1.5-0.2,2.7,0.6,4.1,0.9c4.4,1.2,8.8,2,13.2,3.1
			c3.8,0.9,7.6,2.6,11.6,1.9c2-0.3,3.7,1.7,5.5,1c2-0.8,4-1,6.1-0.9c2,0,4-0.2,6,0c5.4,0.6,10.7-1.1,16-1.1c1.6,0,2.6-1.8,4.4-0.9
			c0-0.8,0-1.2,0-1.5c-0.2-0.2-0.5-0.5-0.7-0.5c-8.2,0.6-16.3-1.8-24.5-1c-4.6,0.5-9.1-0.7-13.5-1.3c-4.4-0.6-8.8-1.8-13.1-3.3
			c-1.8-0.6-3.6-0.7-5.4-1.3c-4.5-1.6-9.1-3-13.3-5.1c-5.9-3-11.1-6.9-14.6-12.7c-0.8-1.2-2.4-1.8-2.8-3.3c0.3,0,0.7,0,1,0
			c2.3-0.2,4.3,0.9,6.3,1.8c5.1,2.2,10.3,4.2,15.8,5.4c3.6,0.8,7.1,2.2,10.6,3.3c2.1,0.7,4.7-0.5,6.3,1.6c3.1-0.8,6,0.9,9.1,1.1
			c3.9,0.3,7.7,1.7,11.6,2.1c0.5,0,0.9,0.9,1.7,0.8c4.6-0.6,9,1.7,13.6,1c2.3-0.4,4.2,1.4,6.6,1.1c2-0.2,4.2-1,6.1,0.8
			c0.4,0.4,1.6,0.1,2.4,0.1c3.8,0,7.7,0.2,11.5-0.1c4.5-0.4,8.6,1.4,13.1,1.1c7.2-0.4,14.3-1.7,21.6-1.1c3.4-1.5,7.1-0.5,10.5-1.2
			c2.1-0.4,4.1-1,6.1-0.8c2.2,0.3,3.9-1.6,6.1-1.1c0.5,1.9,2,0.6,3,1c1.3,0,2.7,0,4,0c1,0,2,0,3,0c2.2,0,4.4,0.5,6.6,0.8
			c3.1,0.5,6.3,0.6,9.5-0.7c2.2-0.8,4.9-0.3,7.4-0.1c2.6,0.2,4.9-1.5,7.5-1.1c2,0.3,4,0.1,6,0.1c0.2,1.3-0.3,2.6,0.2,3.8
			c2.4,1,4.6,2.2,6.9,2.8c2.6,0.6,5.1,1.8,7.9,1.4c0.1,0.9-0.6,0.9-1.2,1c-0.5,0.1-0.9,0.4-0.8,1c-1.9-0.1-3.5,1.6-5.6,1.1
			c-1.4,2.1-3.6,0.6-5.4,1.3c-10.4,3.8-21.1,6.8-30.9,12.1c-0.3,0.8,0.3,1.7-0.5,2.5c-3.6,0-7.4,0-11.2,0
			C366.6,397,365.9,397,366,398z"/>
		<path class="st9" d="M366,398c-0.1-1,0.6-1,1.3-1c3.8,0,7.6,0,11.2,0c0.8-0.9,0.2-1.8,0.5-2.5c9.8-5.2,20.5-8.3,30.9-12.1
			c1.8-0.7,4.1,0.8,5.4-1.3c2,0.6,3.6-1.2,5.6-1.1c1.4,0.1,2.8-0.1,4-1c1.3,0,2.7,0,4,0c-0.2,1.9-1.9,0.5-2.7,1.2
			c-0.5,0.3-0.2,0.9-0.2,1.3c0.3,0.2,0.5,0.4,0.8,0.4c4.3,0,8.6-0.1,12.9,0.1c2.6,0.1,4.8-1.4,7.5-1.2c2.5,0.2,5.2,0.8,7.6-0.8
			c0.6-0.4,1.6-0.1,2.4-0.1c4.6,0.1,9-1.3,13.4-2.4c7.6-1.9,15-4.5,21.8-8.6c0.4-0.2,1,0,1.5,0c0.8,0.2,1.9-0.5,2,1
			c-4.1,5.1-8.9,9.3-14.2,13.1c-3.1,2.2-6.1,4.5-9.8,5.4c-3.7,0.8-7.2,2-10.9,2.6c-6.2,1.1-12.3,2.2-18.7,1.9
			c-3.6,1.8-7.4,0.4-11.1,1.1c-6.2,1.2-12.5,0.2-18.6,1.1c-4.6,0.7-9.1,0.1-13.6,0.9c-5.9,1-11.8,0.1-17.6,1.1
			C376.3,398.1,371.2,397.6,366,398z"/>
		<path class="st9" d="M423,378c-2.8,0.4-5.3-0.8-7.9-1.4c-2.3-0.6-4.5-1.8-6.9-2.8c-0.6-1.2-0.1-2.5-0.2-3.8c2.1-1.2,3.8-2.9,5-5
			c2.7,0,5.4-0.2,8,0.1c2.8,0.3,5.3-1.4,8.1-1.1c2.8,0.3,5.8,0.5,8.5,0c4.7-1,9.6-0.8,14.1-2c4.4-1.2,9.1-1.1,13.3-2.8
			c3.6,0.8,7.1-0.7,10.6-1.2c4.6-0.6,9.4-0.8,13.8-2.7c1.6-0.7,3.7,0.8,5.1-1.1c2,0.6,3.6-1.2,5.6-1.1c0.3,0,0.7,0,1,0
			c-2.5,3.2-5.7,5.4-9,7.5c-1.9,1.3-3.9,2.5-6,3.5c-3.7,1.8-7.4,3.8-11.4,4.8c-3.9,1-7.6,2.5-11.6,3.4c-6.1,1.3-12.1,2.7-18.2,4
			c-3.9,0.8-8,1.1-11.8,2.7c-1.1,0.5-2.6,0.1-3.9,0.1c0.1-0.9-0.5-1-1.2-1c-0.9,0-1.9,0-2.8,0C424.3,378,423.7,378,423,378z"/>
		<path class="st9" d="M231,348c7.7,0,15.3,0.1,23,0c3.9-0.1,7.6,1.4,11.6,1.1c3.8-0.3,7.7-0.1,11.5-0.1c4,0,8,0.1,12,0
			c2,0,3.5,2,5.6,0.7c1.3,6.1,4,11.2,7.6,16.2c-2.4-0.2-4.6,1.1-6.6-0.7c-0.2-0.2-0.6-0.2-0.9-0.1c-4.3,0.6-8.3-1.6-12.6-1
			c-2.2,0.3-3.9-1.2-6.1-1.1c-1.8,0.1-3.9,0.9-5.6-0.8c-0.4-0.4-1.6,0-2.4-0.1c-3.2-0.1-6.2-1-9.3-1.7c-2.1-0.5-4.3-0.9-6.5-1.2
			c-7.3-1.1-14.6-2.1-21.5-4.9c-1.2-0.5-3,1-3.7-1.2c0.6,0,1.2,0,1.7,0C229.2,350.4,229.2,350.4,231,348z"/>
		<path class="st9" d="M302,33c1.3-1.5,3.4-1.7,5-2.9c1.6-1.2,3.2-2.4,5.1-3.2c1.8-0.7,3.5-2,5.2-3c3.9-2.5,7.8-5.1,11.8-7.6
			c3-1.9,6.5-3,9-5.4c1.3,0.7,0.9,1.6,0.9,2.4c0,5,0,10,0,14.9c0,3.9,2,7.6,0.6,11.7c-1.5,0.7-3-0.2-4.6-0.8
			c-1.5-0.5-3.3,0.4-4.8-0.5c-0.6-0.3-1-0.7-1.7-0.6c-4.3,0.3-8.4-1.3-12.6-1.8c-3.5-0.3-6.9-1.6-10.5-1.2c-0.7,0.1-1.4,0-1.3-1
			C303.9,32.5,302.8,33.2,302,33z"/>
		<path class="st10" d="M231,348c-1.8,2.4-1.8,2.4-2.3,5c-0.5,0-1.1,0-1.7,0c-3.2,0.1-5.9-1.8-8.9-2.4c-0.6-0.1-1.4-0.9-1-2.4
			C221.6,347.8,226.3,348.1,231,348z"/>
		<path class="st11" d="M332.5,338c4.6-0.3,3,3.9,4.6,5.3c-0.7,1.9-1.2,3.6-2.9,4.7c-1.6-0.1-2.1-1.7-3.3-2.5
			C331,343,330.6,340.4,332.5,338z"/>
		<path class="st12" d="M315.9,344.4c0.8-2.2,1.8-4.1,4.2-5.7c0.8-0.4,1.2,1.9,2.5,1.3c0.9,1,0.2,2.2,0.5,3.4c-1,0.7-2,1.5-3.5,2.7
			C318.5,346.3,317.4,344.9,315.9,344.4z"/>
		<path class="st13" d="M345,340.6c1.8-2.1,3.2-2.1,4.9-0.2c0,1.2,0,2.7,0,4.4c-1.5,0.2-3.2,0.9-5.1-1.9
			C344.7,342.8,345.1,341.6,345,340.6z"/>
		<path class="st14" d="M222,380c-0.4,1,0.9,2.5-1,3c0-0.7-0.3-1-1-1c-0.1-1.5-1.2-0.8-2-1c-1.4-0.6-2.4-1.6-3-3c0-0.3,0-0.7,0-1
			c1.3-0.5,1.9,0.9,3,1c0.1,1.5,1.2,0.8,2,1c0.3,0,0.7,0,1,0C221,379.7,221.3,380,222,380z"/>
		<path class="st15" d="M346,350c0.1-0.3,0.2-0.8,0.3-0.8c4.5,0,9,0,13.6,0.2c-1.9,0.9-4,0.7-5.9,0.5c-2.2-0.2-3.9,1.6-6,1.1
			C347.9,349.5,346.8,350.2,346,350z"/>
		<path class="st16" d="M420,310c2.3,0,4.5,0,6.8,0c0.7,0,1.3,0.1,1.2,1c-3.6-0.1-7.1,1.7-10.8,1c-0.7-0.1-1.3-0.1-1.2-1
			c0.7,0,1.3,0,2,0C418.8,310.8,419.9,311.5,420,310z"/>
		<path class="st17" d="M331,295c0.8-2.8,3.1-1.8,5-2c0.1,1.1,1.5,1.7,1,3c-0.7,0-1,0.3-1,1C334.3,296.5,333,294.8,331,295z"/>
		<path class="st18" d="M555,272c-0.5,0-1,0-1.5,0c0.3-2,0.7-3,1.5-4c1.4,0.2,1.8,1.7,2.9,2.2C557.3,271.6,556.4,272.2,555,272z"/>
		<path class="st19" d="M256,398c0-0.3,0-0.7,0-1c0.3,0,0.7,0,1,0c-0.1,0.9,0.5,1,1.2,1c1.6,0,3.2,0,4.8,0c1.7,0,3.3,0,5,0
			c0,0.3,0,0.7,0,1c-2.3,0-4.7,0-7,0c-1.7,0-3.3,0-5,0C256,398.7,256,398.3,256,398z"/>
		<path class="st20" d="M345,294c0.9,0.1,1-0.5,1-1.2c0-2.3,0-4.5,0-6.8c0.6-0.1,1,0.3,1,0.7c0,3.4,0,6.7,0,11.3
			C346,296,345.5,295,345,294z"/>
		<path class="st21" d="M372,369c0,0.7-0.3,1-1,1c-1,0.4-2.5-0.9-3,1c-1.3,0-2.7,0-4,0c0-0.3,0-0.7,0-1c1.5,0.5,2.5-1.3,4-1
			C369.3,369.2,370.7,369,372,369z"/>
		<path class="st22" d="M346,350c0.8,0.2,1.9-0.5,2,1c-2.9,0-5.9,0-8.8,0C341.4,349.7,343.7,350.1,346,350z"/>
		<path class="st23" d="M527,230c-1-1.3-2-2.7-3-4c0.3,0,0.7,0,1,0s0.7,0,1,0c0,0.7,0.3,1,1,1c0.3,0.7,0.7,1.3,1,2
			C527.3,229,527,229.3,527,230z"/>
		<path class="st24" d="M151,308c1.1,0.2,1.8,0.9,2,2c-0.6,0.1-1.4-0.3-1.8,0.3c-0.6,0.8-1.4,0.7-2.2,0.7
			C150,310.2,149.3,308.3,151,308z"/>
		<path class="st25" d="M496,370c-0.1-1.5-1.2-0.8-2-1c0.3-1.7,2.2-1,3-2c0.7,0,1,0.3,1,1C497.8,369.1,497.1,369.8,496,370z"/>
		<path class="st26" d="M246,396c-0.7,0-1,0.3-1,1c-0.3,0-0.7,0-1,0c-0.1-1.5-1.2-0.8-2-1c-0.7,0-1.3,0-2,0c0.1-1.5,1.2-0.8,2-1
			c0.9,0,1.9,0,2.8,0C245.5,395,246.1,395.1,246,396z"/>
		<path class="st27" d="M242,395c-0.8,0.2-1.9-0.5-2,1c-0.8,0.1-1-0.7-1.6-1c-0.5,0-0.9,0-1.4,0C238.6,393.6,240.4,393.6,242,395z"
			/>
		<path class="st28" d="M418,311c-0.7,0-1.3,0-2,0c-1.3,0-2.7,0-4,0c-0.1-0.9,0.5-1,1.2-1c1.6,0,3.2,0,4.8,0
			C418,310.3,418,310.7,418,311z"/>
		<path class="st29" d="M534,238c-1.4-0.6-2.4-1.6-3-3c0.3,0,0.7,0,1,0c1.1,0.2,1.8,0.9,2,2C534,237.3,534,237.7,534,238z"/>
		<path class="st30" d="M511,205c-1.9,0-0.2-2.5-2.7-2.3c1.1-0.5,1.4-0.6,1.7-0.7c1.5,0.1,0.8,1.2,1,2C511,204.3,511,204.7,511,205z
			"/>
		<path class="st8" d="M251,398c1.3,0,2.7,0,4,0c0,0.3,0,0.7,0,1c-0.9,0-1.9,0-2.8,0C251.5,399,250.9,398.9,251,398z"/>
		<path class="st31" d="M529,232c-1.1-0.2-1.8-0.9-2-2c0.7,0,1-0.3,1-1c1.5,0.1,0.8,1.2,1,2C529,231.3,529,231.7,529,232z"/>
		<path class="st32" d="M498,368c0-0.7-0.3-1-1-1c0.1-1.5,1.2-0.8,2-1c0.3,0,0.7,0,1,0C499.8,367.1,499.1,367.8,498,368z"/>
		<path class="st33" d="M211,375c-1.1,0-1.2-1.2-2.3-1.4c1.2-0.8,2-1,2.3,0.4C211,374.3,211,374.7,211,375z"/>
		<path class="st12" d="M302,33c0.8,0.2,1.9-0.5,2,1c-0.9-0.1-1.9,0.3-2.8-0.3C301.1,33,301.5,33,302,33z"/>
		<path class="st34" d="M519,218c-1.5-0.1-0.8-1.2-1-2c0-0.3,0-0.7,0-1c1.5,0.1,0.8,1.2,1,2C519,217.3,519,217.7,519,218z"/>
		<path class="st35" d="M521,221c-1.5-0.1-0.8-1.2-1-2c0.3,0,0.7,0,1,0c0,0.7,0.3,1,1,1c0,0.3,0,0.7,0,1
			C521.7,221,521.3,221,521,221z"/>
		<path class="st36" d="M523,224c-1.5-0.1-0.8-1.2-1-2c0.3,0,0.7,0,1,0c0,0.7,0.3,1,1,1c0,0.3,0,0.7,0,1
			C523.7,224,523.3,224,523,224z"/>
		<path class="st37" d="M523,224c0.3,0,0.7,0,1,0c0.7,0,1,0.3,1,1c-0.7,0-1,0.3-1,1C522.5,225.9,523.2,224.8,523,224z"/>
		<path class="st8" d="M246,397c1,0.4,2.5-0.9,3,1C248,397.6,246.5,398.9,246,397z"/>
		<path class="st3" d="M143,321c-1-0.4-2.5,0.9-3-1C141,320.4,142.5,319.1,143,321z"/>
		<path class="st38" d="M364,370c0,0.3,0,0.7,0,1c-1-0.4-2.5,0.9-3-1C362,370,363,370,364,370z"/>
		<path class="st39" d="M500,366c-0.3,0-0.7,0-1,0c0-0.7,0.3-1,1-1c0.3,0,0.7,0,1,0C501,365.7,500.7,366,500,366z"/>
		<path class="st40" d="M335,52c-0.1-0.5,0.1-0.8,0.6-0.9c0.5,0.9,0.7,1.6-0.6,1.9C335,52.7,335,52.3,335,52z"/>
		<path class="st41" d="M335,53c-0.2,0.8,0.5,1.9-1,2c0-0.3,0-0.7,0-1s0-0.7,0-1C334.3,53,334.7,53,335,53z"/>
		<path class="st23" d="M334,54c0,0.3,0,0.7,0,1c-0.8-0.2-1.9,0.5-2-1c0.3,0,0.7,0,1,0S333.7,54,334,54z"/>
		<path class="st35" d="M532,235c-0.3,0-0.7,0-1,0c0-0.3,0-0.7,0-1s0-0.7,0-1C532.5,233.1,531.8,234.2,532,235z"/>
		<path class="st42" d="M215,377c0,0.3,0,0.7,0,1c-0.7,0-1-0.3-1-1c0-0.3,0-0.7,0-1C214.7,376,215,376.3,215,377z"/>
		<path class="st43" d="M534,238c0-0.3,0-0.7,0-1c1.5,0.1,0.8,1.2,1,2C534.3,239,534,238.7,534,238z"/>
		<path class="st44" d="M220,379c-0.8-0.2-1.9,0.5-2-1C218.8,378.2,219.9,377.5,220,379z"/>
		<path class="st43" d="M517,214c-0.7,0-1-0.3-1-1c0-0.3,0-0.7,0-1C517.5,212.1,516.8,213.2,517,214z"/>
		<path class="st45" d="M521,219c-0.3,0-0.7,0-1,0c-0.7,0-1-0.3-1-1c0.3,0,0.7,0,1,0C520.7,218,521,218.3,521,219z"/>
		<path class="st46" d="M337,297c0.7,0,1,0.3,1,1c-0.8-0.2-1.9,0.5-2-1C336.3,297,336.7,297,337,297z"/>
		<path class="st44" d="M218,381c0.8,0.2,1.9-0.5,2,1C219.2,381.8,218.1,382.5,218,381z"/>
		<path class="st47" d="M523,222c-0.3,0-0.7,0-1,0c-0.7,0-1-0.3-1-1c0.3,0,0.7,0,1,0C522.7,221,523,221.3,523,222z"/>
		<path class="st48" d="M200,353c-0.5,0.1-0.8-0.1-0.9-0.6c0.9-0.5,1.6-0.7,1.9,0.6C200.7,353,200.3,353,200,353z"/>
		<path class="st49" d="M501,353c-0.3,0-0.7,0-1,0c0.2-1.4,1-1.2,1.9-0.6C501.8,352.9,501.5,353.1,501,353z"/>
		<path class="st50" d="M200,353c0.3,0,0.7,0,1,0c0.7,0,1,0.3,1,1c-0.3,0-0.7,0-1,0C200.3,354,200,353.7,200,353z"/>
		<path class="st8" d="M242,396c0.8,0.2,1.9-0.5,2,1C243.2,396.8,242.1,397.5,242,396z"/>
		<path class="st6" d="M530,233c-0.7,0-1-0.3-1-1c0.3,0,0.7,0,1,0c0.7,0,1,0.3,1,1C530.7,233,530.3,233,530,233z"/>
		<path class="st51" d="M189,252c-0.1,0.6,0.3,1.3-0.3,1.8c-0.6,0.1-0.7-0.3-0.7-0.8C188,252.3,188.3,252,189,252z"/>
		<path class="st52" d="M255,399c0-0.3,0-0.7,0-1c0.3,0,0.7,0,1,0c0,0.3,0,0.7,0,1C255.7,399,255.3,399,255,399z"/>
		<path class="st53" d="M338,298c0.5-0.1,0.8,0.1,0.9,0.6c0,0.1-0.2,0.3-0.3,0.3C338.1,298.8,337.9,298.5,338,298z"/>
		<path class="st54" d="M149,311c0.1,0.5-0.1,0.8-0.6,0.9c-0.1,0-0.3-0.2-0.3-0.3C148.2,311.1,148.5,310.9,149,311z"/>
		<path class="st55" d="M503,362c-0.1-0.5,0.1-0.8,0.6-0.9c0.1,0,0.3,0.2,0.3,0.3C503.8,361.9,503.5,362.1,503,362z"/>
		<path class="st56" d="M191,249c0,0.7-0.3,1-1,1C190,249.3,190.3,249,191,249z"/>
		<path class="st57" d="M526,226c-0.3,0-0.7,0-1,0c0-0.3,0-0.7,0-1C525.7,225,526,225.3,526,226z"/>
		<path class="st8" d="M524,223c-0.7,0-1-0.3-1-1C523.7,222,524,222.3,524,223z"/>
		<path class="st48" d="M503,362c0,0.7-0.3,1-1,1C502,362.3,502.3,362,503,362z"/>
		<path class="st44" d="M220,382c0.7,0,1,0.3,1,1C220.3,383,220,382.7,220,382z"/>
		<path class="st8" d="M522,220c-0.7,0-1-0.3-1-1C521.7,219,522,219.3,522,220z"/>
		<path class="st58" d="M501,364c0-0.7,0.3-1,1-1C502,363.7,501.7,364,501,364z"/>
		<path class="st44" d="M222,380c-0.7,0-1-0.3-1-1C221.7,379,222,379.3,222,380z"/>
		<path class="st59" d="M520,218c-0.3,0-0.7,0-1,0c0-0.3,0-0.7,0-1C519.7,217,520,217.3,520,218z"/>
		<path class="st60" d="M337,297c-0.3,0-0.7,0-1,0c0-0.7,0.3-1,1-1C337,296.3,337,296.7,337,297z"/>
		<path class="st61" d="M530,232c-0.3,0-0.7,0-1,0c0-0.3,0-0.7,0-1C529.7,231,530,231.3,530,232z"/>
		<path class="st56" d="M181,265c0,0.7-0.3,1-1,1C180,265.3,180.3,265,181,265z"/>
		<path class="st62" d="M501,365c-0.3,0-0.7,0-1,0c0-0.7,0.3-1,1-1C501,364.3,501,364.7,501,365z"/>
		<path class="st63" d="M515,211c-0.5,0-0.9-0.1-0.8-0.7c0-0.2,0.5-0.2,0.8-0.3C515,210.3,515,210.7,515,211z"/>
		<path class="st64" d="M512,206c-0.7,0-1-0.3-1-1c0.3,0,0.7,0,1,0C512,205.3,512,205.7,512,206z"/>
		<path class="st8" d="M512,205c-0.3,0-0.7,0-1,0c0-0.3,0-0.7,0-1C511.7,204,512,204.3,512,205z"/>
		<path class="st65" d="M214,376c0,0.3,0,0.7,0,1c-0.7,0-1-0.3-1-1C213.3,376,213.7,376,214,376z"/>
		<path class="st66" d="M212,375c0.7,0,1,0.3,1,1C212.3,376,212,375.7,212,375z"/>
		<path class="st67" d="M211,375c0-0.3,0-0.7,0-1c0.7,0,1,0.3,1,1C211.7,375,211.3,375,211,375z"/>
		<path class="st68" d="M334,54c-0.3,0-0.7,0-1,0c0-0.7,0.3-1,1-1C334,53.3,334,53.7,334,54z"/>
		<path class="st62" d="M335,53c-0.3,0-0.7,0-1,0c0-0.7,0.3-1,1-1C335,52.3,335,52.7,335,53z"/>
		<path class="st57" d="M527,227c-0.7,0-1-0.3-1-1C526.7,226,527,226.3,527,227z"/>
		<path class="st69" d="M96,353c-0.1-0.9,0.6-1,1.2-1c3.6,0,7.2,0,10.8,0c0.8,0.2,1.9-0.5,2,1c-1.1,0.2-2.1,0-3.2,0.5
			c-2.6,1.2-4.8,3.2-7.8,3.5C97.4,356.1,95.8,355.2,96,353z"/>
		<path class="st70" d="M99,357c3-0.2,5.2-2.3,7.8-3.5c1.1-0.5,2.1-0.4,3.2-0.5c-2,3.8-5.7,4.2-9.3,5C100,358.1,99,358.3,99,357z"/>
		<path class="st70" d="M110,353c-0.1-1.5-1.2-0.8-2-1c-0.1-0.9,0.5-1,1.2-1c0.9,0,1.9,0,2.8,0C111.8,352.1,111.1,352.8,110,353z"/>
		<path class="st21" d="M125,344c-0.6-0.1-1.3,0.3-2-0.6c1.7-0.7,3.3-0.3,5.1-0.5c-0.3,0.6-0.4,0.9-0.6,1.1c-0.1,0.1-0.3,0-0.5,0
			C126.3,344,125.7,344,125,344z"/>
		<path class="st19" d="M141,349c-0.3,0-0.7,0-1,0s-0.7,0-1,0c-0.1-0.9,0.6-1.1,1.2-1C140.7,348.1,141.1,348.4,141,349z"/>
		<path class="st71" d="M35,346c-0.1,1.5-1.2,0.8-2,1C33.1,345.5,34.2,346.2,35,346z"/>
		<path class="st71" d="M38,345c-0.1,1.5-1.2,0.8-2,1C36.1,344.5,37.2,345.2,38,345z"/>
		<path class="st71" d="M31,347c0,0.7-0.3,1-1,1C30,347.3,30.3,347,31,347z"/>
		<path class="st4" d="M561,384c1.3-1.4,2.7-1.4,4,0C563.7,384,562.3,384,561,384z"/>
		<path class="st72" d="M556,382c-0.1-0.9,0.6-1.1,1.2-1c0.5,0.1,0.9,0.4,0.8,1c0,0.3,0,0.7,0,1C557.3,382.7,556.7,382.3,556,382z"
			/>
		<path class="st23" d="M95,265c0.7,0,1.3,0,2,0c-0.1,0.6,0.3,1,0.8,1c1.3,0.1,2.6,0,4,0c0.1,1.1-0.8,1.4-1.2,2c-2,0-4,0-6.1,0
			c-1.3-1.7-3.4-2.9-4.4-5c0.8,0,1.6-0.2,2.2,0.7c0.5,0.7,1.2,0.2,1.8,0.3C94,264.7,94.3,265,95,265z"/>
		<path class="st23" d="M103,265c0.3,0,0.7,0,1,0c0,0.5-0.1,0.9-0.7,0.8C103.2,265.8,103.1,265.3,103,265z"/>
		<path class="st73" d="M95,265c-0.7,0-1-0.3-1-1C94.7,264,95,264.3,95,265z"/>
		<path class="st71" d="M37,348c0.5-1.9,2-0.6,3-1C39.5,348.9,38,347.6,37,348z"/>
		<path class="st71" d="M33,349c0.1-1.5,1.2-0.8,2-1C34.9,349.5,33.8,348.8,33,349z"/>
		<path class="st11" d="M347.5,434.9c2.2,4.1,2.4,8.5,3.8,13.3c-4.1-1.1-7.4,1.6-11.6,0.4C342.4,444,343.7,438.8,347.5,434.9z"/>
		<path class="st74" d="M354.6,519.8c1.6-6.4,3.9-11.1,6.9-16.3c1,2.5,0.2,4.8,1.4,6.8c1,1.7-0.7,4.2,1,6.2
			c-0.4,0.4-0.8,0.8-1.2,1.3C360.3,518.7,357.5,516.9,354.6,519.8z"/>
		<path class="st1" d="M450,221.8c0,1.4,0,2.9,0,4.4c-1.6,2.7-2.6,5.9-5.6,7.8c-1.1,0-2.4,0-3.8,0c-1.8-1.4-3.3-3.3-5.5-4.6
			c-3.1-1.8-4.9-5.2-6.9-8.1c-1.8-2.6-3.9-4.6-6.7-6.2c-1.9,1.6-2.6,4.1-3.5,6.3c-2,5-4.2,9.9-5.9,15c-0.6,1.7-1.5,3.1-2.2,4.6
			c-0.9,2.1-3.9,3.7-5.9,2.9c-2.7-1-6-1.3-7.9-4.6c0-1.2,0-2.8,0-4.6c4.9-9.3,13-17,16.2-27.9c-1.5-1.5-3.2-2.9-4.5-4.6
			c-3.1-4-6.8-7.3-9.6-11.5c-2.5-3.8-4.1-7.9-5.3-12.3c-1.6-5.8-2.1-11.7-1.9-17.7c0.3-7.7,3-14.8,7.7-20.7c2.1-2.6,5.2-4.3,8.8-5.1
			c2.6-0.6,5.1-0.7,7.6-0.9c1.1,0.6,2.1,1.3,3.2,1.9c4.2,2.1,4,2.2,6.7,6.6c3.5,5.6,5.4,11.8,7.7,17.8c0.1,0.1,0.2,0.3,0.2,0.4
			c0,3.3,0.2,6.7,0,10c-0.2,3.2,0.7,6.4-0.6,9.7c-0.8,1.9-0.9,4.3-1.3,6.5c-1.1,6-2.2,11.9-5.1,17.4c3.8,4.3,7.8,7.9,13.1,10.5
			C442.7,216.5,447.2,217.5,450,221.8z M410.9,147c-3.2,1.8-5.8,4.1-6.9,5.9c-2,3-1.8,6.6-2.9,9.8c-0.2,0.6-0.3,1.6,0.1,1.9
			c1.5,1.2,0.9,2.8,0.8,4.2c-0.2,6.1,2.7,11.2,5.6,16.2c2.1,3.7,5.3,6.7,8,10.1c-0.1-1.4,1.3-2,1.5-3.4c0.4-2.8,1.1-5.5,2-8.2
			c1.1-3.5,0.9-7,1-10.6c0-3-0.1-6,0-9c0.1-2.3-0.2-4.6-1.1-6.6C417.1,153.3,416.2,148.7,410.9,147z"/>
		<path class="st75" d="M460.3,278.8c0.4-0.6,0.9-1.3,1.1-1.7c1.5-0.2,1.7,1.1,3,1.4C462.6,279.1,461.3,279.2,460.3,278.8z"/>
		<path class="st76" d="M418,311c0-0.3,0-0.7,0-1c0.7,0,1.3,0,2,0C419.9,311.5,418.8,310.8,418,311z"/>
		<path class="st77" d="M530,233c0.3,0,0.7,0,1,0c0,0.3,0,0.7,0,1C530.3,234,530,233.7,530,233z"/>
		<path class="st64" d="M536,240c0.1,0.5-0.1,0.8-0.6,0.9c-0.1,0-0.3-0.2-0.3-0.3C535.2,240.1,535.5,239.9,536,240z"/>
		<path class="st78" d="M518,215c0,0.3,0,0.7,0,1c-0.5,0-0.9-0.1-0.8-0.7C517.2,215.2,517.7,215.1,518,215z"/>
		<path class="st63" d="M516,212c0,0.3,0,0.7,0,1c-0.5,0-0.9-0.1-0.8-0.7C515.2,212.2,515.7,212.1,516,212z"/>
		<path class="st16" d="M513,207c0.1,0.5-0.1,0.8-0.6,0.9c-0.1,0-0.3-0.2-0.3-0.3C512.2,207.1,512.5,206.9,513,207z"/>
		<path class="st52" d="M263,398c-1.6,0-3.2,0-4.8,0c-0.7,0-1.3-0.1-1.2-1c1.6,0,3.2,0,4.8,0C262.5,397,263.1,397.1,263,398z"/>
		<path class="st79" d="M423,378c0.7,0,1.3,0,2,0c0,0.3,0,0.7,0,1c-1.2,0.9-2.6,1.1-4,1c-0.1-0.6,0.3-0.9,0.8-1
			C422.4,378.9,423.1,378.9,423,378z"/>
		<path class="st80" d="M277,398c1.3,0,2.6,0,4.8,0c-2.1,1.4-3.5,0.8-4.8,1C277,398.7,277,398.3,277,398z"/>
		<path class="st81" d="M272,398c1,0,2,0,3,0c0,0.3,0,0.7,0,1c-1,0-2,0-3,0C272,398.7,272,398.3,272,398z"/>
		<path class="st23" d="M368,371c0.5-1.9,2-0.6,3-1c0,0.3,0,0.7,0,1C370,371,369,371,368,371z"/>
		<path class="st82" d="M275,399c0-0.3,0-0.7,0-1c0.7,0,1.3,0,2,0c0,0.3,0,0.7,0,1C276.3,399,275.7,399,275,399z"/>
		<path class="st83" d="M272,398c0,0.3,0,0.7,0,1c-0.7,0-1.3,0-2,0c0-0.3,0-0.7,0-1C270.7,398,271.3,398,272,398z"/>
		<path class="st77" d="M270,398c0,0.3,0,0.7,0,1c-0.7,0-1.3,0-2,0c0-0.3,0-0.7,0-1C268.7,398,269.3,398,270,398z"/>
		<path class="st84" d="M425,379c0-0.3,0-0.7,0-1c0.9,0,1.9,0,2.8,0c0.7,0,1.2,0.1,1.2,1C427.7,379,426.3,379,425,379z"/>
		<path class="st69" d="M528,229c0,0.7-0.3,1-1,1C527,229.3,527.3,229,528,229z"/>
		<path class="st4" d="M525,225c0,0.3,0,0.7,0,1c-0.3,0-0.7,0-1,0C524,225.3,524.3,225,525,225z"/>
		<path class="st8" d="M410.9,147c5.3,1.7,6.2,6.4,8,10.2c0.9,2,1.3,4.2,1.1,6.6c-0.2,3,0,6,0,9c0,3.6,0.2,7.1-1,10.6
			c-0.9,2.7-1.6,5.4-2,8.2c-0.2,1.4-1.6,2-1.5,3.4c-2.7-3.3-5.9-6.4-8-10.1c-2.9-4.9-5.8-10.1-5.6-16.2c0-1.4,0.6-3-0.8-4.2
			c-0.3-0.3-0.3-1.3-0.1-1.9c1.2-3.2,0.9-6.8,2.9-9.8C405.2,151.1,407.7,148.8,410.9,147z"/>
	</g>
</g>
</svg>
